<?xml version="1.0" encoding="UTF-8"?>
<svg version="1.1" xmlns="http://www.w3.org/2000/svg" width="1200" height="300">
<path d="M0 0 C1.98 0 3.96 0 6 0 C6.33 1.32 6.66 2.64 7 4 C19.39898174 5.53956314 31.50706436 6.26866528 44 6 C48.71761213 16.85402327 52.7382055 27.95583324 56.8125 39.0625 C58.31916833 43.1592756 59.82751408 47.25543285 61.3359375 51.3515625 C61.71900558 52.39249557 62.10207367 53.43342865 62.49674988 54.50590515 C65.17927765 61.78975927 67.88368117 69.0652069 70.6015625 76.3359375 C71.15268959 77.81135262 71.15268959 77.81135262 71.71495056 79.3165741 C73.13527863 83.11831473 74.55574877 86.91999152 75.98135376 90.71975708 C76.9573413 93.32142308 77.93011156 95.92427253 78.90234375 98.52734375 C79.33089157 99.66500687 79.33089157 99.66500687 79.76809692 100.82565308 C81.38894687 105.17482431 82.78386021 109.520202 84 114 C83.27554688 114.06058594 82.55109375 114.12117188 81.8046875 114.18359375 C76.82883467 114.61483433 71.91319609 115.07047641 67 116 C67.33 115.34 67.66 114.68 68 114 C66.68 113.67 65.36 113.34 64 113 C64.33 114.32 64.66 115.64 65 117 C63.68 117.33 62.36 117.66 61 118 C61 117.34 61 116.68 61 116 C59.35 116 57.7 116 56 116 C55.67 116.99 55.34 117.98 55 119 C55.63808594 119.10957031 56.27617188 119.21914062 56.93359375 119.33203125 C58.17302734 119.56986328 58.17302734 119.56986328 59.4375 119.8125 C60.67306641 120.03873047 60.67306641 120.03873047 61.93359375 120.26953125 C62.61550781 120.51058594 63.29742188 120.75164062 64 121 C64.33 121.99 64.66 122.98 65 124 C63.41796875 126.91796875 63.41796875 126.91796875 61.1875 130.1875 C60.45917969 131.27417969 59.73085938 132.36085937 58.98046875 133.48046875 C58.32691406 134.31191406 57.67335938 135.14335937 57 136 C56.34 136 55.68 136 55 136 C52 130.25 52 130.25 52 128 C54.31 128 56.62 128 59 128 C59 127.34 59 126.68 59 126 C56.03 126 53.06 126 50 126 C49.67 123.36 49.34 120.72 49 118 C48.33395752 118.16298584 47.66791504 118.32597168 46.98168945 118.49389648 C43.40101927 119.10166929 39.91127767 119.12448724 36.29296875 119.09765625 C35.20487663 119.09553383 35.20487663 119.09553383 34.09480286 119.09336853 C31.7923255 119.08779931 29.48994765 119.07525261 27.1875 119.0625 C25.62044412 119.05748102 24.0533867 119.05291881 22.48632812 119.04882812 C18.65751411 119.03783998 14.82877389 119.02059673 11 119 C11.99 117.68 12.98 116.36 14 115 C13.32453125 115.433125 12.6490625 115.86625 11.953125 116.3125 C11.06109375 116.869375 10.1690625 117.42625 9.25 118 C8.36828125 118.556875 7.4865625 119.11375 6.578125 119.6875 C4 121 4 121 0 121 C1.25541557 123.51083114 2.50063488 123.87125446 5 125 C5 126.32 5 127.64 5 129 C6.65 128.67 8.3 128.34 10 128 C10.99 130.31 11.98 132.62 13 135 C11.68 135.33 10.36 135.66 9 136 C9 136.66 9 137.32 9 138 C8.01 137.67 7.02 137.34 6 137 C5.67 137.66 5.34 138.32 5 139 C5.66 139.33 6.32 139.66 7 140 C6.34 140.66 5.68 141.32 5 142 C1.17226914 141.57469657 -2.3756723 140.26430036 -6 139 C-6.165 139.763125 -6.33 140.52625 -6.5 141.3125 C-8.69479908 145.24484835 -11.8222367 145.80496538 -16 147 C-16.33 146.34 -16.66 145.68 -17 145 C-20.37653644 144.70162597 -23.71077953 144.58398386 -27.09765625 144.52148438 C-32.58599262 144.3165465 -32.58599262 144.3165465 -35.0078125 142.46484375 C-35.33523438 141.98144531 -35.66265625 141.49804688 -36 141 C-36 141.99 -36 142.98 -36 144 C-38.64 144 -41.28 144 -44 144 C-44.33 143.34 -44.66 142.68 -45 142 C-45.33 142.66 -45.66 143.32 -46 144 C-46.639375 143.814375 -47.27875 143.62875 -47.9375 143.4375 C-48.618125 143.293125 -49.29875 143.14875 -50 143 C-50.33 143.33 -50.66 143.66 -51 144 C-54.8361222 144.14475933 -58.32307787 144.17661508 -62 143 C-62 143.33 -62 143.66 -62 144 C-65.3 144 -68.6 144 -72 144 C-72 137.4 -72 130.8 -72 124 C-70.02 124.33 -68.04 124.66 -66 125 C-66 124.67 -66 124.34 -66 124 C-67.98 123.34 -69.96 122.68 -72 122 C-71.98259766 120.20369141 -71.98259766 120.20369141 -71.96484375 118.37109375 C-71.90605245 109.17784198 -72.071917 100.16092907 -72.9765625 91.00390625 C-73.00027372 87.96491841 -72.62306544 86.52132685 -71 84 C-71.66 83.67 -72.32 83.34 -73 83 C-73.33 84.32 -73.66 85.64 -74 87 C-81.42857143 87.28571429 -81.42857143 87.28571429 -85 85 C-85 85.66 -85 86.32 -85 87 C-87.43868168 87.1079859 -89.87259133 87.18726589 -92.3125 87.25 C-93.00279297 87.28351563 -93.69308594 87.31703125 -94.40429688 87.3515625 C-96.42578125 87.390625 -96.42578125 87.390625 -100 87 C-101.98046875 84.984375 -101.98046875 84.984375 -103 83 C-103 83.99 -103 84.98 -103 86 C-108.94 86.33 -114.88 86.66 -121 87 C-121.75292937 92.27050562 -122.11655493 96.51981061 -121.875 101.75 C-121.83117187 103.04421875 -121.78734375 104.3384375 -121.7421875 105.671875 C-121.33482673 109.17794032 -121.33482673 109.17794032 -118.4453125 110.953125 C-117.63835937 111.29859375 -116.83140625 111.6440625 -116 112 C-117.32 112.33 -118.64 112.66 -120 113 C-119.835 114.093125 -119.67 115.18625 -119.5 116.3125 C-118.36524432 125.91558167 -118.71892804 133.18940101 -123 142 C-121.68 141.34 -120.36 140.68 -119 140 C-118.67 140.66 -118.34 141.32 -118 142 C-118.66 142.99 -119.32 143.98 -120 145 C-122.95064148 145.2208564 -125.68368231 145.28060989 -128.625 145.1875 C-129.42679687 145.17396484 -130.22859375 145.16042969 -131.0546875 145.14648438 C-133.03674378 145.11109051 -135.01845551 145.05728234 -137 145 C-137.33 144.34 -137.66 143.68 -138 143 C-138.33 143.33 -138.66 143.66 -139 144 C-141.86055414 144.23715955 -144.69727656 144.42190617 -147.5625 144.5625 C-150.346875 144.706875 -153.13125 144.85125 -156 145 C-156 136.75 -156 128.5 -156 120 C-165.51900514 122.94631224 -165.51900514 122.94631224 -171 130 C-171.50753344 132.79847753 -171.50753344 132.79847753 -171 135 C-171.87140625 134.77828125 -172.7428125 134.5565625 -173.640625 134.328125 C-177.69225495 133.9323844 -179.24737419 134.76202319 -182.75 136.75 C-188.05394712 139.60087158 -193.17259733 141.53025685 -199 143 C-197.02 143.33 -195.04 143.66 -193 144 C-193 144.33 -193 144.66 -193 145 C-205.50209796 145.21003783 -217.6755128 145.39227481 -230 143 C-230 143.66 -230 144.32 -230 145 C-232.31 145 -234.62 145 -237 145 C-237 143.68 -237 142.36 -237 141 C-241.96284034 138.62886517 -246.45949887 136.56825653 -252 136 C-252.33 135.01 -252.66 134.02 -253 133 C-254.82053772 131.38111153 -254.82053772 131.38111153 -257.0625 129.8125 C-268.42500074 121.0928594 -274.4726052 111.58218439 -279 98 C-279.33 112.52 -279.66 127.04 -280 142 C-277.69 142 -275.38 142 -273 142 C-273 142.99 -273 143.98 -273 145 C-287.85 145 -302.7 145 -318 145 C-323.6875 134.9375 -323.6875 134.9375 -325.58544922 131.57519531 C-328.62961898 126.18307617 -331.6841163 120.7972244 -334.7578125 115.421875 C-335.35376221 114.37652588 -335.94971191 113.33117676 -336.5637207 112.25415039 C-337.71769285 110.23055076 -338.8750145 108.20885706 -340.03588867 106.18920898 C-340.55642822 105.27469971 -341.07696777 104.36019043 -341.61328125 103.41796875 C-342.07516846 102.61125732 -342.53705566 101.8045459 -343.01293945 100.97338867 C-344 99 -344 99 -344 97 C-344.99 96.67 -345.98 96.34 -347 96 C-349.88774951 90.75926941 -350.31233884 86.93443789 -350 81 C-350.61746094 80.92007813 -351.23492187 80.84015625 -351.87109375 80.7578125 C-354 80 -354 80 -355.16015625 78.1796875 C-355.45792969 77.41914063 -355.75570312 76.65859375 -356.0625 75.875 C-356.39378906 75.06289062 -356.72507812 74.25078125 -357.06640625 73.4140625 C-357.37449219 72.61742187 -357.68257812 71.82078125 -358 71 C-359.79250365 66.44217665 -361.7331745 62.71742212 -365 59 C-366.32 59.99 -367.64 60.98 -369 62 C-368.67 62.33 -368.34 62.66 -368 63 C-366.62374927 72.06359409 -369.47838032 80.76961965 -371.80859375 89.42578125 C-372.7508822 92.9311518 -373.48927026 96.40140996 -374 100 C-372.35 100 -370.7 100 -369 100 C-369 100.66 -369 101.32 -369 102 C-371.475 102.495 -371.475 102.495 -374 103 C-374 103.66 -374 104.32 -374 105 C-375.5 106.625 -375.5 106.625 -377 108 C-375.83314734 109.16685266 -374.6331504 110.30017401 -373.4375 111.4375 C-371 114 -371 114 -371 116 C-371.99 116.33 -372.98 116.66 -374 117 C-372.865625 116.979375 -371.73125 116.95875 -370.5625 116.9375 C-367 117 -367 117 -366 118 C-365.91241997 119.99964982 -365.89303424 122.0023611 -365.90234375 124.00390625 C-365.90484131 125.09775635 -365.90733887 126.19160645 -365.90991211 127.31860352 C-365.91901611 128.71908936 -365.92812012 130.1195752 -365.9375 131.5625 C-365.958125 135.996875 -365.97875 140.43125 -366 145 C-377.22 145 -388.44 145 -400 145 C-400 130.81 -400 116.62 -400 102 C-400.99 102.495 -400.99 102.495 -402 103 C-402.63157273 104.99998032 -403.26311191 106.99997124 -403.89453125 109 C-412.64593573 132.74939449 -412.64593573 132.74939449 -420.85546875 136.94921875 C-423.60673399 137.83983451 -425.3542566 138.3228717 -428 137 C-428 137.99 -428 138.98 -428 140 C-429.32 140.33 -430.64 140.66 -432 141 C-432.66 139.68 -433.32 138.36 -434 137 C-434.99 137 -435.98 137 -437 137 C-437.66 136.67 -438.32 136.34 -439 136 C-438.42647107 132.12867972 -436.51295648 129.91827204 -434 127 C-435.485 126.505 -435.485 126.505 -437 126 C-437.99 127.98 -438.98 129.96 -440 132 C-440.99 132 -441.98 132 -443 132 C-441.02 134.64 -439.04 137.28 -437 140 C-443.1434953 146.1434953 -454.53284678 145.21986444 -462.9375 145.3125 C-476.93597078 145.26344515 -492.0453113 143.06472903 -502.72265625 133.3671875 C-504 132 -504 132 -505 130 C-505.99 130 -506.98 130 -508 130 C-512.51389652 125.62509443 -513.3412976 122.36702978 -513.5234375 116.11328125 C-513.49963923 113.512659 -513.44938613 110.91216712 -513.375 108.3125 C-513.36082031 106.99443359 -513.34664062 105.67636719 -513.33203125 104.31835938 C-513.17219468 93.87037588 -513.17219468 93.87037588 -512 90 C-512.66 90 -513.32 90 -514 90 C-514 91.65 -514 93.3 -514 95 C-515.485 95.495 -515.485 95.495 -517 96 C-517 97.65 -517 99.3 -517 101 C-517.99 101 -518.98 101 -520 101 C-520 70.64 -520 40.28 -520 9 C-516.26930717 9.74613857 -513.42595393 10.53173403 -510 12 C-509.34 11.01 -508.68 10.02 -508 9 C-506.68 9.33 -505.36 9.66 -504 10 C-504 9.34 -504 8.68 -504 8 C-507.3 8 -510.6 8 -514 8 C-514 7.34 -514 6.68 -514 6 C-511.22813012 5.89212182 -508.46044463 5.81276673 -505.6875 5.75 C-504.90181641 5.71648437 -504.11613281 5.68296875 -503.30664062 5.6484375 C-501.13339453 5.61144608 -499.14030099 5.61632366 -497 6 C-494.95703125 8.015625 -494.95703125 8.015625 -494 10 C-495.98 10.33 -497.96 10.66 -500 11 C-500 11.66 -500 12.32 -500 13 C-499.030625 12.5875 -498.06125 12.175 -497.0625 11.75 C-492.61593633 10.41967562 -489.71286785 12.04292806 -485.72265625 14.0546875 C-485.15417969 14.36664063 -484.58570313 14.67859375 -484 15 C-484.33 16.98 -484.66 18.96 -485 21 C-481.535 19.02 -481.535 19.02 -478 17 C-476.68 18.32 -475.36 19.64 -474 21 C-474.33 21.66 -474.66 22.32 -475 23 C-478.3 22.67 -481.6 22.34 -485 22 C-485.0269501 24.93756119 -485.04681474 27.87487555 -485.0625 30.8125 C-485.07506836 32.06256836 -485.07506836 32.06256836 -485.08789062 33.33789062 C-485.09111328 34.14033203 -485.09433594 34.94277344 -485.09765625 35.76953125 C-485.10289307 36.50792236 -485.10812988 37.24631348 -485.11352539 38.00708008 C-485.07523213 40.21057409 -485.07523213 40.21057409 -484 43 C-483.91200529 44.76408128 -483.88235743 46.53133766 -483.88647461 48.29760742 C-483.88655014 49.37850143 -483.88662567 50.45939545 -483.88670349 51.57304382 C-483.89186478 52.73874405 -483.89702606 53.90444427 -483.90234375 55.10546875 C-483.9037587 56.29981033 -483.90517365 57.49415192 -483.90663147 58.72468567 C-483.9122365 62.54564908 -483.92478989 66.36655425 -483.9375 70.1875 C-483.94251435 72.77538978 -483.94707737 75.36328048 -483.95117188 77.95117188 C-483.96220757 84.30080118 -483.97895064 90.65039643 -484 97 C-482.68 97 -481.36 97 -480 97 C-479.67 96.34 -479.34 95.68 -479 95 C-476.69 95.33 -474.38 95.66 -472 96 C-472.57344937 98.86724686 -472.8614515 99.8614515 -475 102 C-475.66 100.68 -476.32 99.36 -477 98 C-479.475 98.495 -479.475 98.495 -482 99 C-481.49466764 103.42165811 -480.23932111 105.92679792 -477 109 C-474.36067473 109.90373783 -471.737025 110.41669959 -469 111 C-468.67 111.66 -468.34 112.32 -468 113 C-463.38 113 -458.76 113 -454 113 C-454.33 111.68 -454.66 110.36 -455 109 C-453 109 -451 109 -449 109 C-449 109.66 -449 110.32 -449 111 C-448.0925 110.484375 -447.185 109.96875 -446.25 109.4375 C-445.48429687 109.00244141 -445.48429687 109.00244141 -444.703125 108.55859375 C-440.92765537 105.10351948 -439.17111192 101.2288293 -438.48101807 96.27296448 C-438.45212949 94.92517595 -438.444209 93.57682156 -438.45410156 92.22875977 C-438.43859505 91.11531944 -438.43859505 91.11531944 -438.42277527 89.97938538 C-438.39350867 87.54983332 -438.3918516 85.12112017 -438.390625 82.69140625 C-438.37563235 80.99745612 -438.35890293 79.30352056 -438.34051514 77.60960388 C-438.29695085 73.16927391 -438.27686689 68.72914111 -438.26177979 64.28863525 C-438.24216916 59.75024816 -438.20020366 55.21207276 -438.16015625 50.67382812 C-438.08497261 41.78261756 -438.03460956 32.89145465 -438 24 C-437.01 23.505 -437.01 23.505 -436 23 C-436.99 21.02 -436.99 21.02 -438 19 C-437.0409375 18.1028125 -437.0409375 18.1028125 -436.0625 17.1875 C-433.79689611 15.09189663 -433.79689611 15.09189663 -433 12 C-437.72383963 11.34843591 -442.21974517 10.88049363 -447 11 C-447 10.67 -447 10.34 -447 10 C-446.21625 9.87625 -445.4325 9.7525 -444.625 9.625 C-441.85942178 9.20882007 -441.85942178 9.20882007 -440 7 C-437.875 6.375 -437.875 6.375 -436 6 C-436.99 5.01 -436.99 5.01 -438 4 C-432.58084391 2.73973114 -432.58084391 2.73973114 -429.85546875 3.9609375 C-425.87420329 5.40966064 -422.20172274 5.29092587 -418 5.25 C-417.2059375 5.25773437 -416.411875 5.26546875 -415.59375 5.2734375 C-411.18901466 5.25875505 -408.08369404 4.77160256 -404 3 C-403.01 3.33 -402.02 3.66 -401 4 C-400.67 3.34 -400.34 2.68 -400 2 C-399.01 2 -398.02 2 -397 2 C-397.33 3.32 -397.66 4.64 -398 6 C-396.42702148 5.89788208 -396.42702148 5.89788208 -394.82226562 5.79370117 C-390.90253016 5.55702536 -386.98340917 5.40872814 -383.05859375 5.28588867 C-381.36610545 5.22080539 -379.6743403 5.13229042 -377.984375 5.01928711 C-366.93460476 4.29935809 -366.93460476 4.29935809 -362 6 C-358.48568646 9.24919187 -356.696496 12.75944544 -354.83081055 17.13565063 C-353.46362922 20.20362282 -351.70813308 23.05142053 -350 25.9375 C-349.3304876 27.11035929 -348.6638267 28.28485082 -348 29.4609375 C-347.67 30.04456055 -347.34 30.62818359 -347 31.22949219 C-346.33333333 32.40983073 -345.66666667 33.59016927 -345 34.77050781 C-342.68800316 38.85940066 -340.35457691 42.93545802 -338 47 C-337.64341309 47.61955566 -337.28682617 48.23911133 -336.91943359 48.87744141 C-335.85435136 50.71747425 -334.77351494 52.54726104 -333.6875 54.375 C-333.05199219 55.45523438 -332.41648437 56.53546875 -331.76171875 57.6484375 C-331.18035156 58.42445313 -330.59898437 59.20046875 -330 60 C-329.01 60 -328.02 60 -327 60 C-326.67 61.98 -326.34 63.96 -326 66 C-326.825 66.474375 -327.65 66.94875 -328.5 67.4375 C-329.325 67.953125 -330.15 68.46875 -331 69 C-331 69.33 -331 69.66 -331 70 C-330.195625 69.979375 -329.39125 69.95875 -328.5625 69.9375 C-326 70 -326 70 -325 71 C-324.85884839 73.67058851 -324.95752893 76.32432238 -325 79 C-325.33 78.34 -325.66 77.68 -326 77 C-327.670625 78.0209375 -327.670625 78.0209375 -329.375 79.0625 C-331.2734375 80.22265625 -331.2734375 80.22265625 -333 81 C-333.66 80.67 -334.32 80.34 -335 80 C-334.67 78.35 -334.34 76.7 -334 75 C-335.75244247 73.3516367 -335.75244247 73.3516367 -338 72 C-340.11367548 72.36149552 -340.11367548 72.36149552 -342 73 C-338.24032151 78.89585945 -334.19139001 84.33117965 -329.63671875 89.640625 C-327.8890872 92.15988385 -327.36904555 93.98345379 -327 97 C-324.48916886 95.74458443 -324.12874554 94.49936512 -323 92 C-321.68 93.32 -320.36 94.64 -319 96 C-318.67 94.68 -318.34 93.36 -318 92 C-320.97 91.505 -320.97 91.505 -324 91 C-325.28317892 87.15046324 -325.06643637 84.05261865 -325 80 C-322 80 -322 80 -319.875 81.625 C-317.65085217 84.44225392 -317.32104541 86.46850054 -317 90 C-315.68 89.67 -314.36 89.34 -313 89 C-313.33 88.67 -313.66 88.34 -314 88 C-314.08775605 85.85441173 -314.10695219 83.70595579 -314.09765625 81.55859375 C-314.09443359 80.25341797 -314.09121094 78.94824219 -314.08789062 77.60351562 C-314.07953401 76.2148431 -314.07106905 74.82617123 -314.0625 73.4375 C-314.05748666 72.04492344 -314.05292347 70.65234519 -314.04882812 69.25976562 C-314.03699434 65.8398013 -314.0205088 62.41992156 -314 59 C-314.75667969 59.32871094 -315.51335937 59.65742188 -316.29296875 59.99609375 C-320.09230729 61.40508366 -322.09692463 61.12461494 -326 60 C-333.35010169 54.99511792 -333.35010169 54.99511792 -334.7265625 50.76953125 C-334.86191406 49.89361328 -334.86191406 49.89361328 -335 49 C-329.73413584 48.32488921 -326.70775984 49.98064488 -322.34375 52.61328125 C-319.63943407 54.21333484 -316.81047984 55.59476008 -314 57 C-314 40.17 -314 23.34 -314 6 C-302.78 6 -291.56 6 -280 6 C-279.67 20.52 -279.34 35.04 -279 50 C-276.525 44.06 -276.525 44.06 -274 38 C-266.28309186 23.22105895 -253.97334643 12.5857922 -238 7.5625 C-229.98944182 5.32955691 -222.73492516 4.78739685 -214.4375 4.75 C-213.32052734 4.729375 -212.20355469 4.70875 -211.05273438 4.6875 C-194.34278607 4.61000459 -181.9138756 10.04835553 -169.64453125 21.30078125 C-168 23 -168 23 -167 25 C-166.01 25 -165.02 25 -164 25 C-161.69 29.29 -159.38 33.58 -157 38 C-157.02320313 36.66324219 -157.04640625 35.32648438 -157.0703125 33.94921875 C-157.0890708 32.19531808 -157.10727093 30.44141138 -157.125 28.6875 C-157.14175781 27.80642578 -157.15851563 26.92535156 -157.17578125 26.01757812 C-157.18222656 25.17001953 -157.18867188 24.32246094 -157.1953125 23.44921875 C-157.20578613 22.66893311 -157.21625977 21.88864746 -157.22705078 21.0847168 C-157 19 -157 19 -155 16 C-155.33 16 -155.66 16 -156 16 C-156.08090971 14.37581255 -156.13914995 12.75048255 -156.1875 11.125 C-156.22230469 10.22007813 -156.25710938 9.31515625 -156.29296875 8.3828125 C-156.19628906 7.59648438 -156.09960938 6.81015625 -156 6 C-154.515 5.01 -154.515 5.01 -153 4 C-152.34 4.66 -151.68 5.32 -151 6 C-150.67 5.67 -150.34 5.34 -150 5 C-147.85441173 4.91224395 -145.70595579 4.89304781 -143.55859375 4.90234375 C-142.25341797 4.90556641 -140.94824219 4.90878906 -139.60351562 4.91210938 C-138.2148431 4.92046599 -136.82617123 4.92893095 -135.4375 4.9375 C-134.04492344 4.94251334 -132.65234519 4.94707653 -131.25976562 4.95117188 C-127.8398013 4.96300566 -124.41992156 4.9794912 -121 5 C-120.98969254 5.59912704 -120.97938507 6.19825409 -120.96876526 6.8155365 C-120.86093035 13.02810088 -120.74631456 19.24051341 -120.62768555 25.45288086 C-120.58426261 27.77413773 -120.54259316 30.09542808 -120.50268555 32.41674805 C-120.4451606 35.74538278 -120.38141575 39.07384785 -120.31640625 42.40234375 C-120.29133751 43.96951393 -120.29133751 43.96951393 -120.26576233 45.56834412 C-120.24581711 46.52926468 -120.22587189 47.49018524 -120.20532227 48.48022461 C-120.18977798 49.33071884 -120.1742337 50.18121307 -120.15821838 51.05747986 C-120.21055171 53.00523798 -120.21055171 53.00523798 -119 54 C-116.81249946 54.0207768 -114.62444881 53.99084021 -112.4375 53.9375 C-104.59561567 53.86613806 -104.59561567 53.86613806 -100.75 55 C-91.80169535 57.38621457 -82.117711 55.73572308 -73 55 C-72.67 53.02 -72.34 51.04 -72 49 C-71.01 49.33 -70.02 49.66 -69 50 C-68.3125 52.0625 -68.3125 52.0625 -68 54 C-67.67 53.34 -67.34 52.68 -67 52 C-68.2065625 50.9171875 -68.2065625 50.9171875 -69.4375 49.8125 C-73.4717283 45.10590032 -72.90361443 38.90580656 -73 33 C-68.25 30 -68.25 30 -66 30 C-66 28.68 -66 27.36 -66 26 C-68.31 25.67 -70.62 25.34 -73 25 C-73 18.4 -73 11.8 -73 5 C-61.12 5 -49.24 5 -37 5 C-36.88508876 10.89111605 -36.78559035 16.77833303 -36.7253418 22.66967773 C-36.7002245 24.67274156 -36.66612405 26.67571398 -36.62280273 28.6784668 C-36.56202812 31.56061366 -36.53376268 34.44154721 -36.51171875 37.32421875 C-36.48591232 38.21711105 -36.4601059 39.11000336 -36.43351746 40.029953 C-36.43145961 44.60981758 -36.43721348 46.34787024 -39.53442383 49.93676758 C-40.34806396 50.61763428 -41.1617041 51.29850098 -42 52 C-41.91985673 55.44616056 -41.4443896 56.5556104 -39 59 C-38.34 58.67 -37.68 58.34 -37 58 C-37 78.33333333 -37 98.66666667 -37 119 C-36.67 119.33 -36.34 119.66 -36 120 C-33.90729775 115.60532528 -32.47076563 111.26064824 -31.1875 106.5625 C-29.71262473 101.19828183 -27.92571428 96.10505103 -25.875 90.9375 C-23.17046974 84.06470328 -21.73230839 77.37358792 -21 70 C-20.34 70 -19.68 70 -19 70 C-18.67201416 69.22285645 -18.34402832 68.44571289 -18.00610352 67.64501953 C-16.7896678 64.76361303 -15.57264593 61.88245504 -14.35522461 59.00146484 C-13.82829628 57.75416852 -13.30160216 56.50677324 -12.77514648 55.25927734 C-12.01868184 53.46686254 -11.26130678 51.67483204 -10.50390625 49.8828125 C-10.04830322 48.80402832 -9.5927002 47.72524414 -9.12329102 46.61376953 C-8.45483844 45.05835696 -7.75711784 43.51423568 -7 42 C-7.99 41.67 -8.98 41.34 -10 41 C-12.08845462 37.92955679 -12.22107559 35.40087249 -12.125 31.75 C-12.10695313 30.85796875 -12.08890625 29.9659375 -12.0703125 29.046875 C-12.03550781 28.03367187 -12.03550781 28.03367187 -12 27 C-13.32 27 -14.64 27 -16 27 C-16 26.01 -16 25.02 -16 24 C-15.05125 23.690625 -14.1025 23.38125 -13.125 23.0625 C-10.13919592 22.12605258 -10.13919592 22.12605258 -8 21 C-8.66 20.01 -9.32 19.02 -10 18 C-9.01 18 -8.02 18 -7 18 C-6.34 15.69 -5.68 13.38 -5 11 C-3.02 11 -1.04 11 1 11 C0.00063488 13.22935295 -0.74171995 14.78145534 -2.625 16.375 C-4.29605686 17.9951065 -4.29605686 17.9951065 -4 20.75 C-4 24.90167759 -5.2149935 27.28123645 -7 31 C-6.01 31.33 -5.02 31.66 -4 32 C-5.485 33.485 -5.485 33.485 -7 35 C-6.67 35.66 -6.34 36.32 -6 37 C-3.5561487 33.39240998 -2.19665201 29.86610796 -0.89453125 25.7578125 C0.22952531 22.29238048 1.45548162 18.86559331 2.6875 15.4375 C3.12449219 14.21933594 3.56148437 13.00117187 4.01171875 11.74609375 C4.33785156 10.83988281 4.66398438 9.93367188 5 9 C4.34 8.67 3.68 8.34 3 8 C2.67 8.66 2.34 9.32 2 10 C1.77213542 7.98177083 1.54427083 5.96354167 1.31640625 3.9453125 C1.08707039 1.92595684 1.08707039 1.92595684 0 0 Z M-401 7 C-402.2978439 10.89353171 -402.08489242 14.54889712 -402.02172852 18.60229492 C-402.01212097 19.48055435 -402.00251343 20.35881378 -401.99261475 21.26368713 C-401.95960904 24.16936215 -401.91928259 27.07488757 -401.87890625 29.98046875 C-401.85460668 31.99399791 -401.83076304 34.00753263 -401.80735779 36.02107239 C-401.74450071 41.32297076 -401.67543859 46.62477098 -401.60510254 51.92657471 C-401.53443381 57.33576993 -401.46960809 62.74503478 -401.40429688 68.15429688 C-401.27526358 78.76960778 -401.13967776 89.3848242 -401 100 C-400.67 100 -400.34 100 -400 100 C-399.9845388 98.99521858 -399.9845388 98.99521858 -399.96876526 97.97013855 C-399.86075664 91.01116054 -399.74615395 84.0523135 -399.62768555 77.09350586 C-399.58431862 74.49490087 -399.54264485 71.89626705 -399.50268555 69.29760742 C-399.44502577 65.56680608 -399.38131871 61.83615006 -399.31640625 58.10546875 C-399.29969376 56.93976852 -399.28298126 55.7740683 -399.26576233 54.57304382 C-399.24581711 53.49214981 -399.22587189 52.4112558 -399.20532227 51.29760742 C-399.18977798 50.34496506 -399.1742337 49.39232269 -399.15821838 48.41081238 C-399 46 -399 46 -398 43 C-398.66 43 -399.32 43 -400 43 C-400 41.35 -400 39.7 -400 38 C-399.01 37.67 -398.02 37.34 -397 37 C-396.34 36.34 -395.68 35.68 -395 35 C-392.875 35.375 -392.875 35.375 -391 36 C-391.3609375 36.94101563 -391.721875 37.88203125 -392.09375 38.8515625 C-392.56301181 40.10918415 -393.03173319 41.36700754 -393.5 42.625 C-393.9640625 43.85476562 -394.428125 45.08453125 -394.90625 46.3515625 C-396.13510253 50.45066343 -396.97248994 54.05502012 -395 58 C-393.68 58 -392.36 58 -391 58 C-391 60.31 -391 62.62 -391 65 C-389.515 64.505 -389.515 64.505 -388 64 C-388.33 65.98 -388.66 67.96 -389 70 C-387.68 70.33 -386.36 70.66 -385 71 C-384.38511719 70.30132812 -383.77023437 69.60265625 -383.13671875 68.8828125 C-381.92435547 67.51769531 -381.92435547 67.51769531 -380.6875 66.125 C-379.88699219 65.22007812 -379.08648437 64.31515625 -378.26171875 63.3828125 C-376 61 -376 61 -373 59 C-372.01 59.66 -371.02 60.32 -370 61 C-370 59.35 -370 57.7 -370 56 C-371.32 56 -372.64 56 -374 56 C-374 51.71 -374 47.42 -374 43 C-375.49251706 45.98503412 -376.60987721 48.61234773 -377.625 51.75 C-378.07875 53.1525 -378.5325 54.555 -379 56 C-378.34 52.37 -377.68 48.74 -377 45 C-377.99 44.34 -378.98 43.68 -380 43 C-378.8125 41.4375 -378.8125 41.4375 -377 40 C-374.3125 40.3125 -374.3125 40.3125 -372 41 C-372.33 39.68 -372.66 38.36 -373 37 C-373.639375 36.87625 -374.27875 36.7525 -374.9375 36.625 C-375.9584375 36.315625 -375.9584375 36.315625 -377 36 C-377.33 35.34 -377.66 34.68 -378 34 C-377.01 34 -376.02 34 -375 34 C-375 34.66 -375 35.32 -375 36 C-373.02 36.33 -371.04 36.66 -369 37 C-369.40992188 36.52949219 -369.81984375 36.05898437 -370.2421875 35.57421875 C-370.78101563 34.95160156 -371.31984375 34.32898438 -371.875 33.6875 C-372.40867187 33.07261719 -372.94234375 32.45773438 -373.4921875 31.82421875 C-375 30 -375 30 -377 27 C-375.35 27.99 -373.7 28.98 -372 30 C-371.67 27.36 -371.34 24.72 -371 22 C-371.99 22.495 -371.99 22.495 -373 23 C-373 23.66 -373 24.32 -373 25 C-374.98 24.67 -376.96 24.34 -379 24 C-379.66 21.03 -380.32 18.06 -381 15 C-383.9254644 14.7763932 -383.9254644 14.7763932 -386 16 C-386 16.99 -386 17.98 -386 19 C-387.72526042 17.92578125 -389.45052083 16.8515625 -391.17578125 15.77734375 C-393.17133075 14.68887926 -393.17133075 14.68887926 -396 16 C-398.1875 15.5625 -398.1875 15.5625 -400 15 C-400 12.36 -400 9.72 -400 7 C-400.33 7 -400.66 7 -401 7 Z M-41 8 C-40 10 -40 10 -40 10 Z M26 9 C26 12.3 26 15.6 26 19 C26.66 18.67 27.32 18.34 28 18 C27.67 15.03 27.34 12.06 27 9 C26.67 9 26.34 9 26 9 Z M-153 13 C-153.33 13.66 -153.66 14.32 -154 15 C-151.525 15.99 -151.525 15.99 -149 17 C-149.66 15.68 -150.32 14.36 -151 13 C-151.66 13 -152.32 13 -153 13 Z M-47 15 C-46.67 15.66 -46.34 16.32 -46 17 C-44.68 16.34 -43.36 15.68 -42 15 C-42 14.34 -42 13.68 -42 13 C-44.32357511 12.81509993 -44.32357511 12.81509993 -47 15 Z M-155 19 C-155 19.66 -155 20.32 -155 21 C-153.68 21.33 -152.36 21.66 -151 22 C-151.66 21.01 -152.32 20.02 -153 19 C-153.66 19 -154.32 19 -155 19 Z M-377 20 C-377.66 20.66 -378.32 21.32 -379 22 C-377.35 22 -375.7 22 -374 22 C-374 21.34 -374 20.68 -374 20 C-374.99 20 -375.98 20 -377 20 Z M-49 20 C-49.33 20.66 -49.66 21.32 -50 22 C-49.01 21.67 -48.02 21.34 -47 21 C-47.66 20.67 -48.32 20.34 -49 20 Z M-417 24 C-417 24.99 -417 25.98 -417 27 C-416.34 26.01 -415.68 25.02 -415 24 C-415.66 24 -416.32 24 -417 24 Z M-370 26 C-370 27.32 -370 28.64 -370 30 C-368.02463255 29.65213292 -368.02463255 29.65213292 -366 29 C-365.67 28.34 -365.34 27.68 -365 27 C-366.65 26.67 -368.3 26.34 -370 26 Z M-149 27 C-149 27.66 -149 28.32 -149 29 C-147.68 29 -146.36 29 -145 29 C-144.67 29.66 -144.34 30.32 -144 31 C-143.34 29.02 -142.68 27.04 -142 25 C-144.35287614 25 -146.79373224 26.24893012 -149 27 Z M-206 27 C-205.67 27.99 -205.34 28.98 -205 30 C-204.67 29.01 -204.34 28.02 -204 27 C-204.66 27 -205.32 27 -206 27 Z M-180 30 C-180 31.32 -180 32.64 -180 34 C-179.01 34 -178.02 34 -177 34 C-177.66 32.68 -178.32 31.36 -179 30 C-179.33 30 -179.66 30 -180 30 Z M35 30 C36 32 36 32 36 32 Z M-52 33.5625 C-54.76040744 35.54654285 -55.54145583 37.96136631 -57 41 C-59.1875 43.375 -59.1875 43.375 -61 45 C-62.32 44.01 -63.64 43.02 -65 42 C-65.33 43.65 -65.66 45.3 -66 47 C-64.35 47 -62.7 47 -61 47 C-60.34 48.32 -59.68 49.64 -59 51 C-57.68 50.34 -56.36 49.68 -55 49 C-54.67 50.32 -54.34 51.64 -54 53 C-53.67 53 -53.34 53 -53 53 C-53.12375 51.14375 -53.12375 51.14375 -53.25 49.25 C-53.2737948 45.89493302 -53.19641677 45.24552096 -51 42.5 C-50.34 42.005 -49.68 41.51 -49 41 C-50.32 41 -51.64 41 -53 41 C-52.34 39.35 -51.68 37.7 -51 36 C-50.67 37.32 -50.34 38.64 -50 40 C-49.34 40 -48.68 40 -48 40 C-47.67 38.02 -47.34 36.04 -47 34 C-49.82113522 32.74780561 -49.82113522 32.74780561 -52 33.5625 Z M-422 34 C-422.33 34.66 -422.66 35.32 -423 36 C-422.01 35.67 -421.02 35.34 -420 35 C-420.66 34.67 -421.32 34.34 -422 34 Z M-219.375 34.4375 C-220.51710938 34.70433594 -221.65921875 34.97117188 -222.8359375 35.24609375 C-225.2281488 35.81608978 -227.61639982 36.39529355 -230 37 C-230.33 36.01 -230.66 35.02 -231 34 C-231.99 34 -232.98 34 -234 34 C-235.21081851 37.10540926 -235.21081851 37.10540926 -235 41 C-236.171875 42.7890625 -236.171875 42.7890625 -237.75 44.625 C-245.50651299 54.4852842 -248.30403931 67.6571163 -247 80 C-246.09017208 83.34658442 -245.01083034 86.59364107 -243.87890625 89.87109375 C-242.79091888 93.74432879 -242.79408303 97.0942679 -243.15234375 101.07421875 C-243.10207031 101.70972656 -243.05179687 102.34523438 -243 103 C-240.18490007 105.2773501 -240.18490007 105.2773501 -237 105 C-234.984375 106.2421875 -234.984375 106.2421875 -232.75 107.875 C-224.92654711 113.19093594 -217.30954996 113.89145994 -208 113 C-201.30762327 111.33933594 -196.62634705 107.84183567 -193 102 C-190.92374929 97.74400944 -189 93.78062729 -189 89 C-177.12 89 -165.24 89 -153 89 C-153 88.34 -153 87.68 -153 87 C-153.66 87 -154.32 87 -155 87 C-155.33 76.44 -155.66 65.88 -156 55 C-157.98 55 -159.96 55 -162 55 C-161.67 53.68 -161.34 52.36 -161 51 C-161.99 51.66 -162.98 52.32 -164 53 C-164 53.66 -164 54.32 -164 55 C-172.25 55 -180.5 55 -189 55 C-189.495 53.02 -189.495 53.02 -190 51 C-188.989375 51.185625 -187.97875 51.37125 -186.9375 51.5625 C-183.02085773 51.99768247 -179.85755337 51.70853021 -176 51 C-176.495 49.02 -176.495 49.02 -177 47 C-177.33 47.99 -177.66 48.98 -178 50 C-184.91521679 49.18858227 -189.42517842 48.65125019 -194 43 C-197.49519441 39.94854331 -201.03014068 37.79511092 -205.1875 35.75 C-206.23292969 35.22921875 -207.27835937 34.7084375 -208.35546875 34.171875 C-212.44097224 32.36145986 -215.08804312 33.43078766 -219.375 34.4375 Z M-65 34 C-64.34 35.32 -63.68 36.64 -63 38 C-62.34 37.67 -61.68 37.34 -61 37 C-61.33 36.01 -61.66 35.02 -62 34 C-62.99 34 -63.98 34 -65 34 Z M-424 36 C-425.22709702 43.24657351 -425.22709702 43.24657351 -423.5625 50.1875 C-423.046875 50.785625 -422.53125 51.38375 -422 52 C-421.34 51.67 -420.68 51.34 -420 51 C-420.66 48.69 -421.32 46.38 -422 44 C-421.34 43.67 -420.68 43.34 -420 43 C-420.99 40.69 -421.98 38.38 -423 36 C-423.33 36 -423.66 36 -424 36 Z M-136 38 C-136 39.32 -136 40.64 -136 42 C-134.02 42 -132.04 42 -130 42 C-129.67 42.99 -129.34 43.98 -129 45 C-128.67 44.34 -128.34 43.68 -128 43 C-130.52788007 40.20127563 -132.20411134 38.54226981 -136 38 Z M-159 48 C-159 48.99 -159 49.98 -159 51 C-157.515 51.99 -157.515 51.99 -156 53 C-156.34786708 51.02463255 -156.34786708 51.02463255 -157 49 C-157.66 48.67 -158.32 48.34 -159 48 Z M24 48 C22.57212243 52.37705236 21.14805678 56.75531917 19.72753906 61.13476562 C19.24356483 62.62501648 18.75854313 64.11492757 18.27246094 65.60449219 C17.57472733 67.74325929 16.88074636 69.88321237 16.1875 72.0234375 C15.96876221 72.69120209 15.75002441 73.35896667 15.5246582 74.04696655 C14.38140529 77.4541159 14.38140529 77.4541159 14 81 C14.99 81 15.98 81 17 81 C17.33 82.65 17.66 84.3 18 86 C20.16874252 85.49396008 21.99967627 85.00016187 24 84 C24.66 85.65 25.32 87.3 26 89 C19.97463002 89.602537 19.97463002 89.602537 17.19921875 87.88671875 C15.74400545 86.65378147 14.36520843 85.33191067 13 84 C12.01 86.64 11.02 89.28 10 92 C16.6 92 23.2 92 30 92 C28.515 91.505 28.515 91.505 27 91 C27.66 89.02 28.32 87.04 29 85 C30.32 85.66 31.64 86.32 33 87 C32.01 89.475 32.01 89.475 31 92 C33.64 92 36.28 92 39 92 C37.20645194 84.59684417 35.26858827 77.27235389 33 70 C32.40703125 70.20496094 31.8140625 70.40992188 31.203125 70.62109375 C29 71 29 71 25.75 69.0625 C24.8425 68.381875 23.935 67.70125 23 67 C24.2065625 66.5359375 24.2065625 66.5359375 25.4375 66.0625 C27.89080405 65.23664655 27.89080405 65.23664655 29 64 C29.49238912 58.09133053 28.09486218 53.49901323 26 48 C25.34 48 24.68 48 24 48 Z M-355 51 C-354 54 -354 54 -354 54 Z M-135 54 C-134 56 -134 56 -134 56 Z M-62 54 C-62.33 54.66 -62.66 55.32 -63 56 C-61.68 57.65 -60.36 59.3 -59 61 C-57.70366379 59.93354885 -57.70366379 59.93354885 -57.9375 57.4375 C-57.958125 56.633125 -57.97875 55.82875 -58 55 C-59.32 54.67 -60.64 54.34 -62 54 Z M-506 55 C-505 57 -505 57 -505 57 Z M-369 55 C-368.01 55.99 -367.02 56.98 -366 58 C-366.33 57.01 -366.66 56.02 -367 55 C-367.66 55 -368.32 55 -369 55 Z M-506 59 C-505 62 -505 62 -505 62 Z M-121 59 C-123.32115041 61.8712932 -125.13276732 64.70551865 -124.75 68.4375 C-124.5025 68.953125 -124.255 69.46875 -124 70 C-124 69.34 -124 68.68 -124 68 C-123.46375 68.185625 -122.9275 68.37125 -122.375 68.5625 C-119.38009386 69.11419324 -116.96254171 68.60597444 -114 68 C-113.23043864 65.65466049 -113.23043864 65.65466049 -113 63 C-114.37514541 61.2912354 -114.37514541 61.2912354 -116 60 C-116 59.34 -116 58.68 -116 58 C-118.21081851 57.89459074 -118.21081851 57.89459074 -121 59 Z M-44 59 C-44.99 60.485 -44.99 60.485 -46 62 C-45.01 61.67 -44.02 61.34 -43 61 C-43.33 60.34 -43.66 59.68 -44 59 Z M-66.65625 61.49609375 C-67.56890625 62.45708984 -67.56890625 62.45708984 -68.5 63.4375 C-71.8030888 66.9015444 -71.8030888 66.9015444 -74 68 C-74.33 67.34 -74.66 66.68 -75 66 C-75.99 67.32 -76.98 68.64 -78 70 C-77.34 70 -76.68 70 -76 70 C-76.6875 71.9375 -76.6875 71.9375 -78 74 C-80.5625 74.625 -80.5625 74.625 -83 75 C-83.33 75.66 -83.66 76.32 -84 77 C-81.36 77.66 -78.72 78.32 -76 79 C-75.401875 78.175 -74.80375 77.35 -74.1875 76.5 C-73.465625 75.675 -72.74375 74.85 -72 74 C-71.01 74 -70.02 74 -69 74 C-69.66 75.32 -70.32 76.64 -71 78 C-69.23470405 79.21690533 -69.23470405 79.21690533 -67 80 C-64.76529595 79.21690533 -64.76529595 79.21690533 -63 78 C-63.495 75.525 -63.495 75.525 -64 73 C-60.535 72.505 -60.535 72.505 -57 72 C-56.56230274 68.9361192 -56.39144123 66.83395091 -58.265625 64.265625 C-59.78643673 62.71528294 -61.24576489 61.28159145 -63 60 C-65.12462824 59.77656088 -65.12462824 59.77656088 -66.65625 61.49609375 Z M-102 63 C-101.67 63.99 -101.34 64.98 -101 66 C-100.01 65.67 -99.02 65.34 -98 65 C-98 66.65 -98 68.3 -98 70 C-96.68 69.67 -95.36 69.34 -94 69 C-94.66 67.02 -95.32 65.04 -96 63 C-97.98 63 -99.96 63 -102 63 Z M-106 66 C-105.34 67.32 -104.68 68.64 -104 70 C-103.34 68.68 -102.68 67.36 -102 66 C-103.32 66 -104.64 66 -106 66 Z M-331 73 C-330 75 -330 75 -330 75 Z M-106 75 C-106.825 75.94875 -107.65 76.8975 -108.5 77.875 C-108.9640625 78.40867187 -109.428125 78.94234375 -109.90625 79.4921875 C-111.19572458 80.95936421 -111.19572458 80.95936421 -111 83 C-108.525 83.495 -108.525 83.495 -106 84 C-106 82.68 -106 81.36 -106 80 C-104.68 79.34 -103.36 78.68 -102 78 C-103.32 77.01 -104.64 76.02 -106 75 Z M-505 79 C-504 81 -504 81 -504 81 Z M-97 79 C-97.33 80.32 -97.66 81.64 -98 83 C-95 84.33333333 -95 84.33333333 -92 83 C-92.33 82.01 -92.66 81.02 -93 80 C-95.01508358 79.26676204 -95.01508358 79.26676204 -97 79 Z M-506 81 C-505 83 -505 83 -505 83 Z M-500 83 C-499 85 -499 85 -499 85 Z M-493 84 C-492 87 -492 87 -492 87 Z M-506 85 C-507.25664978 87.90600261 -508 89.79604584 -508 93 C-507.01 93.33 -506.02 93.66 -505 94 C-504.34 93.67 -503.68 93.34 -503 93 C-503.66 90.36 -504.32 87.72 -505 85 C-505.33 85 -505.66 85 -506 85 Z M-153 91 C-153.33 92.65 -153.66 94.3 -154 96 C-153.34 96 -152.68 96 -152 96 C-151.67 96.66 -151.34 97.32 -151 98 C-149.70366379 96.93354885 -149.70366379 96.93354885 -149.9375 94.4375 C-149.958125 93.633125 -149.97875 92.82875 -150 92 C-150.99 91.67 -151.98 91.34 -153 91 Z M-46 95 C-45.67 96.98 -45.34 98.96 -45 101 C-43.35 101 -41.7 101 -40 101 C-40 98.03 -40 95.06 -40 92 C-42.15518172 92 -44.2161657 93.90225582 -46 95 Z M-142 95 C-141.67 96.32 -141.34 97.64 -141 99 C-140.01 97.35 -139.02 95.7 -138 94 C-140.0745356 93.8509288 -140.0745356 93.8509288 -142 95 Z M24 96 C25 98 25 98 25 98 Z M-396 100 C-395 102 -395 102 -395 102 Z M-393 100 C-392 102 -392 102 -392 102 Z M-327 101 C-326 104 -326 104 -326 104 Z M-157 105 C-158.36952673 107.73905345 -158.12621361 109.97087332 -158 113 C-157.67 113.66 -157.34 114.32 -157 115 C-158.32 115 -159.64 115 -161 115 C-161 115.66 -161 116.32 -161 117 C-159.35 117 -157.7 117 -156 117 C-156 113.04 -156 109.08 -156 105 C-156.33 105 -156.66 105 -157 105 Z M-143 105 C-143.99 106.485 -143.99 106.485 -145 108 C-143.68 107.34 -142.36 106.68 -141 106 C-141.66 105.67 -142.32 105.34 -143 105 Z M59 110 C60 113 60 113 60 113 Z M-68 116 C-68.33 116.99 -68.66 117.98 -69 119 C-67.68 118.67 -66.36 118.34 -65 118 C-65.99 117.34 -66.98 116.68 -68 116 Z M-139 118 C-139 118.99 -139 119.98 -139 121 C-138.01 120.67 -137.02 120.34 -136 120 C-136.99 119.34 -137.98 118.68 -139 118 Z M-41 120 C-41.33 120.99 -41.66 121.98 -42 123 C-40.68 122.67 -39.36 122.34 -38 122 C-38.99 121.34 -39.98 120.68 -41 120 Z M-381 121 C-380.67 122.32 -380.34 123.64 -380 125 C-379.34 125 -378.68 125 -378 125 C-378 123.68 -378 122.36 -378 121 C-378.99 121 -379.98 121 -381 121 Z M-136 121 C-135 123 -135 123 -135 123 Z M-35 123 C-35.33 123.66 -35.66 124.32 -36 125 C-35.34 125.66 -34.68 126.32 -34 127 C-33.34 126.34 -32.68 125.68 -32 125 C-32.33 124.34 -32.66 123.68 -33 123 C-33.66 123 -34.32 123 -35 123 Z M-36 132 C-36 133.65 -36 135.3 -36 137 C-35.01 136.34 -34.02 135.68 -33 135 C-33.99 134.01 -34.98 133.02 -36 132 Z M-3 133 C-3 136 -3 136 -3 136 Z " fill="#000000" transform="translate(520,72)"/>
<path d="M0 0 C2.1875 -0.3125 2.1875 -0.3125 5 0 C7.8125 2.125 7.8125 2.125 10 5 C10.3125 8.3125 10.3125 8.3125 10 11 C9.01 10.34 8.02 9.68 7 9 C7 8.34 7 7.68 7 7 C5.68 7.66 4.36 8.32 3 9 C3 9.99 3 10.98 3 12 C4.32 11.34 5.64 10.68 7 10 C7 12.97 7 15.94 7 19 C7.99 18.67 8.98 18.34 10 18 C10 17.01 10 16.02 10 15 C10.99 15.33 11.98 15.66 13 16 C12.67 17.65 12.34 19.3 12 21 C17.28 21 22.56 21 28 21 C28.33 18.69 28.66 16.38 29 14 C30.3303125 14.061875 30.3303125 14.061875 31.6875 14.125 C34.97277013 14.00102754 37.05449295 13.38612096 40 12 C39.45276317 15.37462715 38.9451 17.08235 37 20 C38.26972656 19.98839844 39.53945313 19.97679688 40.84765625 19.96484375 C50.31596372 19.90576491 59.68817556 20.0367455 69.12890625 20.78125 C72.01865254 21.03798515 72.01865254 21.03798515 75 21 C77.33564933 21.31669821 79.6693782 21.64820803 82 22 C80.515 26.455 80.515 26.455 79 31 C79.99 31 80.98 31 82 31 C81.69106068 32.6256807 81.3777305 34.25052748 81.0625 35.875 C80.80146484 37.23238281 80.80146484 37.23238281 80.53515625 38.6171875 C80 41 80 41 79 43 C79.66 43.33 80.32 43.66 81 44 C81 45.98 81 47.96 81 50 C73.25 50.125 73.25 50.125 71 49 C68.98745646 49.25556108 66.97446167 49.51448107 64.97265625 49.84375 C63 50 63 50 60 49 C59.34 49.99 58.68 50.98 58 52 C58 51.34 58 50.68 58 50 C56.865625 50.185625 55.73125 50.37125 54.5625 50.5625 C53.386875 50.706875 52.21125 50.85125 51 51 C50.67 50.67 50.34 50.34 50 50 C47.69 49.67 45.38 49.34 43 49 C43.33 56.59 43.66 64.18 44 72 C47.28517578 71.98259766 47.28517578 71.98259766 50.63671875 71.96484375 C65.61910186 71.90325932 80.58721069 71.93402456 95.5625 72.4375 C96.79121826 72.47673584 98.01993652 72.51597168 99.28588867 72.55639648 C100.40970947 72.59837158 101.53353027 72.64034668 102.69140625 72.68359375 C103.67310791 72.72025146 104.65480957 72.75690918 105.66625977 72.79467773 C108 73 108 73 110 74 C110.92057325 76.76171975 111.12851977 78.42490433 111.1328125 81.2734375 C111.13410156 82.0984375 111.13539063 82.9234375 111.13671875 83.7734375 C111.13285156 84.63195312 111.12898438 85.49046875 111.125 86.375 C111.12886719 87.22578125 111.13273437 88.0765625 111.13671875 88.953125 C111.13478516 90.19449219 111.13478516 90.19449219 111.1328125 91.4609375 C111.13168457 92.21165527 111.13055664 92.96237305 111.12939453 93.73583984 C111 96 111 96 110 101 C87.89 101 65.78 101 43 101 C43 109.91 43 118.82 43 128 C43.66 128 44.32 128 45 128 C44.91621094 128.59167969 44.83242188 129.18335938 44.74609375 129.79296875 C43.85960394 135.96048234 43.85960394 135.96048234 45 142 C45.99 142.66 46.98 143.32 48 144 C48.33 142.35 48.66 140.7 49 139 C49.99 139 50.98 139 52 139 C52.33 138.34 52.66 137.68 53 137 C52.01 137 51.02 137 50 137 C49.67 136.01 49.34 135.02 49 134 C51.31 133.01 53.62 132.02 56 131 C54.68 130.67 53.36 130.34 52 130 C52 129.34 52 128.68 52 128 C53.65 127.67 55.3 127.34 57 127 C57.66 128.98 58.32 130.96 59 133 C59.66 133 60.32 133 61 133 C60.67 131.35 60.34 129.7 60 128 C60.71027344 127.87882812 61.42054688 127.75765625 62.15234375 127.6328125 C63.07144531 127.46523437 63.99054688 127.29765625 64.9375 127.125 C65.85402344 126.96257812 66.77054688 126.80015625 67.71484375 126.6328125 C68.84599609 126.31957031 68.84599609 126.31957031 70 126 C70.33 125.34 70.66 124.68 71 124 C71.99 124.33 72.98 124.66 74 125 C74 125.66 74 126.32 74 127 C74.64686768 126.92273682 75.29373535 126.84547363 75.96020508 126.76586914 C83.27480556 125.98506431 90.35017329 126.04659527 97.6875 126.4375 C98.78255859 126.48970703 99.87761719 126.54191406 101.00585938 126.59570312 C103.67098163 126.7237221 106.33556082 126.85858495 109 127 C109 126.34 109 125.68 109 125 C111.64 125.66 114.28 126.32 117 127 C117 92.02 117 57.04 117 21 C129.9525 20.938125 142.905 20.87625 156.25 20.8125 C160.31731445 20.78518799 164.38462891 20.75787598 168.57519531 20.72973633 C173.59912109 20.71618652 173.59912109 20.71618652 175.96209717 20.71366882 C177.58826166 20.70910684 179.21441695 20.6986502 180.84051514 20.68327332 C198.77388399 20.52238705 212.27400687 23.03899566 225.71875 35.6953125 C240.33605596 50.46279626 245.31666967 69.65838197 245.5625 89.875 C245.42711765 111.17925904 239.18878403 131.40499059 224.09765625 146.9609375 C217.60805313 153.05216894 209.70629652 157.16218783 200.671875 157.09765625 C199.87265625 157.09443359 199.0734375 157.09121094 198.25 157.08789062 C197.425 157.07951172 196.6 157.07113281 195.75 157.0625 C194.90953125 157.05798828 194.0690625 157.05347656 193.203125 157.04882812 C191.13538599 157.03707961 189.06768376 157.01914522 187 157 C188.98 157.33 190.96 157.66 193 158 C193 158.33 193 158.66 193 159 C179.72597122 159.15410385 166.45189066 159.30228258 153.17771244 159.4429636 C147.01353911 159.50847688 140.84940181 159.57600655 134.68530273 159.64819336 C128.73312738 159.71782336 122.78091576 159.78209269 116.82864189 159.84269524 C114.56132353 159.86671227 112.29402453 159.89263863 110.02675056 159.92053413 C106.84346669 159.95936895 103.6601807 159.99132447 100.47680664 160.02172852 C99.54603806 160.03467453 98.61526947 160.04762054 97.65629578 160.06095886 C92.01654108 160.10612342 86.59454036 159.72549488 81 159 C81 160.65 81 162.3 81 164 C82.98 164.66 84.96 165.32 87 166 C85.66666667 167.33333333 84.33333333 168.66666667 83 170 C82.175 170.928125 81.35 171.85625 80.5 172.8125 C79.675 173.534375 78.85 174.25625 78 175 C75.84375 174.63671875 75.84375 174.63671875 74 174 C73.89132698 172.41820385 73.81410173 170.83422847 73.75 169.25 C73.70359375 168.36828125 73.6571875 167.4865625 73.609375 166.578125 C74.11369413 163.24961875 75.47586629 162.12663234 78 160 C76.08404032 159.91866209 74.16708068 159.86065633 72.25 159.8125 C71.18265625 159.77769531 70.1153125 159.74289063 69.015625 159.70703125 C65.62583043 160.03635067 64.30835303 160.51743165 62 163 C61.3078631 165.26300895 61.3078631 165.26300895 61.25 167.6875 C61.19328125 168.49574219 61.1365625 169.30398437 61.078125 170.13671875 C61.05234375 170.75160156 61.0265625 171.36648437 61 172 C59.68 172.33 58.36 172.66 57 173 C55.14223235 169.86501708 54.79859524 167.62528568 55 164 C55.99 163.67 56.98 163.34 58 163 C56.27773504 159.75150023 56.27773504 159.75150023 53 159 C53.33 160.98 53.66 162.96 54 165 C52.02 165.66 50.04 166.32 48 167 C47.87625 166.401875 47.7525 165.80375 47.625 165.1875 C47.04524015 162.73768652 47.04524015 162.73768652 45 160 C41.74970861 159.55739439 41.74970861 159.55739439 38.0625 159.6875 C36.81597656 159.69136719 35.56945312 159.69523438 34.28515625 159.69921875 C30.85905248 159.74980701 30.85905248 159.74980701 28 162 C27.43829102 161.68305176 26.87658203 161.36610352 26.29785156 161.03955078 C23.83192126 159.92396098 21.92114243 159.60830765 19.234375 159.3671875 C18.34492187 159.28339844 17.45546875 159.19960937 16.5390625 159.11328125 C15.61867188 159.03464844 14.69828125 158.95601562 13.75 158.875 C12.34621094 158.74544922 12.34621094 158.74544922 10.9140625 158.61328125 C8.60992647 158.40167692 6.30537956 158.19751323 4 158 C3.67 158.66 3.34 159.32 3 160 C3 156.37 3 152.74 3 149 C3.66 149.33 4.32 149.66 5 150 C5.48367949 136.23238053 5.48367949 136.23238053 2 123 C2.99 123.33 3.98 123.66 5 124 C5 123.34 5 122.68 5 122 C4.34 121.67 3.68 121.34 3 121 C3 120.01 3 119.02 3 118 C3.66 118 4.32 118 5 118 C5.05814085 114.41673499 5.09364357 110.83359162 5.125 107.25 C5.14175781 106.23421875 5.15851563 105.2184375 5.17578125 104.171875 C5.18222656 103.1921875 5.18867187 102.2125 5.1953125 101.203125 C5.20578613 100.30239258 5.21625977 99.40166016 5.22705078 98.47363281 C5.15641901 96.01229005 5.15641901 96.01229005 4.02026367 94.09179688 C1.85048997 89.64321562 2.4115732 84.19002842 2.25708008 79.3203125 C2.18815887 77.2696042 2.09202956 75.22137839 1.99414062 73.171875 C1.74227172 65.9634579 1.82796425 60.51723474 5 54 C6.21081851 50.89459074 6.21081851 50.89459074 6 47 C5.34 47.33 4.68 47.66 4 48 C3.67 48.99 3.34 49.98 3 51 C-1.54165313 51.0291189 -6.0832821 51.0468389 -10.625 51.0625 C-11.91019531 51.07087891 -13.19539062 51.07925781 -14.51953125 51.08789062 C-15.76347656 51.09111328 -17.00742187 51.09433594 -18.2890625 51.09765625 C-19.43068848 51.10289307 -20.57231445 51.10812988 -21.74853516 51.11352539 C-24.91881886 51.00283445 -27.88768854 50.59566756 -31 50 C-31.59070014 51.94603274 -31.59070014 51.94603274 -32 54 C-31.67 54.33 -31.34 54.66 -31 55 C-30.90468837 56.3534059 -30.8781128 57.71173984 -30.87974548 59.0684967 C-30.87768349 60.38316673 -30.87768349 60.38316673 -30.87557983 61.72439575 C-30.87917511 62.69327728 -30.88277039 63.66215881 -30.88647461 64.66040039 C-30.88632858 65.67491776 -30.88618256 66.68943512 -30.8860321 67.73469543 C-30.88673171 71.10570373 -30.89452632 74.47665754 -30.90234375 77.84765625 C-30.90420776 80.17793243 -30.90563174 82.508209 -30.90663147 84.83848572 C-30.91045798 90.98537265 -30.9202894 97.13223613 -30.93133545 103.27911377 C-30.94154671 109.54609866 -30.94612848 115.81308732 -30.95117188 122.08007812 C-30.96191155 134.38672908 -30.97898956 146.69336259 -31 159 C-31.95390625 158.80535156 -32.9078125 158.61070312 -33.890625 158.41015625 C-35.42976563 158.20712891 -35.42976563 158.20712891 -37 158 C-38.77190909 159.35444301 -38.77190909 159.35444301 -40 161 C-40.66 161 -41.32 161 -42 161 C-42.33 160.01 -42.66 159.02 -43 158 C-43.66 158 -44.32 158 -45 158 C-45.33 158.66 -45.66 159.32 -46 160 C-52.64008287 161.25284582 -59.2648904 161.08338892 -66 161 C-64.50025701 155.48492376 -62.99467864 149.97165755 -61.46484375 144.46484375 C-61.21283203 143.55283203 -60.96082031 142.64082031 -60.70117188 141.70117188 C-60.19077685 139.85409012 -59.67774184 138.00773589 -59.16210938 136.16210938 C-57.50681324 130.149427 -56.13670794 124.13191246 -55 118 C-50.30023095 122.57274827 -50.30023095 122.57274827 -48.375 125.3125 C-47.92125 125.869375 -47.4675 126.42625 -47 127 C-46.01 127 -45.02 127 -44 127 C-44.66 125.35 -45.32 123.7 -46 122 C-46.66 122 -47.32 122 -48 122 C-50.57351615 118.13972578 -49.82079656 116.43230142 -49 112 C-49 111.67 -49 111.34 -49 111 C-49.99 110.67 -50.98 110.34 -52 110 C-51.01 108.02 -51.01 108.02 -50 106 C-50.99 105.67 -51.98 105.34 -53 105 C-52.01 104.67 -51.02 104.34 -50 104 C-50 103.34 -50 102.68 -50 102 C-51.32 101.67 -52.64 101.34 -54 101 C-53.67 99.35 -53.34 97.7 -53 96 C-53.66 96 -54.32 96 -55 96 C-55.99 97.98 -55.99 97.98 -57 100 C-57.99 99.67 -58.98 99.34 -60 99 C-62.3406065 99.27769908 -64.67624308 99.60539977 -67 100 C-67.33 98.35 -67.66 96.7 -68 95 C-65.69 95 -63.38 95 -61 95 C-61.33 94.34 -61.66 93.68 -62 93 C-63.98 93 -65.96 93 -68 93 C-68 79.14 -68 65.28 -68 51 C-84.335 51.495 -84.335 51.495 -101 52 C-100.67 53.65 -100.34 55.3 -100 57 C-101.65 57 -103.3 57 -105 57 C-104.938125 58.0725 -104.87625 59.145 -104.8125 60.25 C-104.8637562 69.90325027 -107.69012926 78.66424827 -114 86 C-116.5563958 88.4849881 -119.23574635 90.75248746 -122 93 C-122.66 93.66 -123.32 94.32 -124 95 C-123.49210938 95.32871094 -122.98421875 95.65742188 -122.4609375 95.99609375 C-113.12859297 102.44484868 -109.33610431 110.093906 -107 121 C-106.34922991 125.4458584 -105.91085398 129.90125662 -105.5 134.375 C-105.28923373 136.65439816 -105.07049393 138.93307324 -104.84375 141.2109375 C-104.70743164 142.70052979 -104.70743164 142.70052979 -104.56835938 144.22021484 C-103.71806266 149.87498017 -102.28582238 155.428103 -101 161 C-113.21 161 -125.42 161 -138 161 C-139.35684639 156.25103764 -140.28060467 152.72224213 -140.7109375 147.98046875 C-140.82179688 146.87509766 -140.93265625 145.76972656 -141.046875 144.63085938 C-141.26444896 142.34762788 -141.47546035 140.06376087 -141.6796875 137.77929688 C-142.53688867 129.39723317 -144.00617577 121.80296591 -149.3125 115.0625 C-156.1345374 109.82698292 -161.1740624 109.76410516 -169.62890625 109.9609375 C-172.30797214 109.99198114 -174.73614625 109.88668352 -177.375 109.5 C-181.32705352 108.95488917 -185.01677826 108.92887104 -189 109 C-189.33 111.31 -189.66 113.62 -190 116 C-190.78375 116.12375 -191.5675 116.2475 -192.375 116.375 C-195.14057822 116.79117993 -195.14057822 116.79117993 -197 119 C-198.485 118.505 -198.485 118.505 -200 118 C-200 117.01 -200 116.02 -200 115 C-200.33 114.34 -200.66 113.68 -201 113 C-201.66 113 -202.32 113 -203 113 C-203.66 114.65 -204.32 116.3 -205 118 C-205.99 117.505 -205.99 117.505 -207 117 C-207 115.68 -207 114.36 -207 113 C-209.97 113.99 -212.94 114.98 -216 116 C-216.08004482 119.5219721 -216.04005702 122.61981469 -215 126 C-213.29159719 124.36587557 -212.06546953 123.13093906 -211 121 C-210.01 121.495 -210.01 121.495 -209 122 C-209 122.66 -209 123.32 -209 124 C-208.01 124.495 -208.01 124.495 -207 125 C-207.33 126.65 -207.66 128.3 -208 130 C-207.01 130 -206.02 130 -205 130 C-205 130.66 -205 131.32 -205 132 C-205.66 132 -206.32 132 -207 132 C-207 132.66 -207 133.32 -207 134 C-206.34 134 -205.68 134 -205 134 C-205 134.66 -205 135.32 -205 136 C-204.01 136.33 -203.02 136.66 -202 137 C-202 139.64 -202 142.28 -202 145 C-202.66 145.33 -203.32 145.66 -204 146 C-202.00287908 147.25767802 -202.00287908 147.25767802 -199.625 146.5 C-197 146 -197 146 -194.875 146.5625 C-194.25625 146.706875 -193.6375 146.85125 -193 147 C-192.01 146.34 -191.02 145.68 -190 145 C-190.875 148.875 -190.875 148.875 -192 150 C-197.52941176 150.23529412 -197.52941176 150.23529412 -200 149 C-199.34 150.98 -198.68 152.96 -198 155 C-195.0280615 153.87548273 -192.66559313 152.77706209 -190 151 C-190 154.3 -190 157.6 -190 161 C-198.21052632 163.05263158 -198.21052632 163.05263158 -202 162 C-204.47754536 159.61131175 -206.25785682 156.95636418 -208 154 C-208.268125 154.969375 -208.53625 155.93875 -208.8125 156.9375 C-209.204375 157.948125 -209.59625 158.95875 -210 160 C-210.99 160.33 -211.98 160.66 -213 161 C-214.17373024 163.68811442 -214.17373024 163.68811442 -215.04296875 167.00390625 C-215.39423828 168.21884766 -215.74550781 169.43378906 -216.10742188 170.68554688 C-216.4677163 171.97778978 -216.82773883 173.27010853 -217.1875 174.5625 C-217.55810473 175.85905037 -217.9298357 177.15527939 -218.30273438 178.45117188 C-219.21297936 181.63111864 -220.11148729 184.81392544 -221 188 C-225 188 -225 188 -227.25 186.5 C-229.6728748 183.03875028 -229.63457901 180.03621767 -229 176 C-228.56523426 174.67213114 -228.0849846 173.35836527 -227.5625 172.0625 C-225.5383288 167.31236594 -225.5383288 167.31236594 -225 159 C-236.88 159 -248.76 159 -261 159 C-261.66 156.69 -262.32 154.38 -263 152 C-256.375 151.875 -256.375 151.875 -253 153 C-253 152.34 -253 151.68 -253 151 C-254.98 150.67 -256.96 150.34 -259 150 C-259 149.67 -259 149.34 -259 149 C-247.59447005 150.19124424 -247.59447005 150.19124424 -244 151 C-243.505 151.99 -243.505 151.99 -243 153 C-242.05125 152.505 -241.1025 152.01 -240.125 151.5 C-237 150 -237 150 -235 150 C-235.99 147.36 -236.98 144.72 -238 142 C-238.33 144.31 -238.66 146.62 -239 149 C-244.94 148.67 -250.88 148.34 -257 148 C-255 144 -255 144 -254 143 C-251.66055264 143.28730055 -249.3260857 143.61936779 -247 144 C-247.99 141.525 -247.99 141.525 -249 139 C-248.4225 138.87625 -247.845 138.7525 -247.25 138.625 C-245.00028429 138.09437367 -245.00028429 138.09437367 -243.1484375 136.97265625 C-240.70666478 135.86719915 -239.04029127 135.7634729 -236.375 135.8125 C-235.59898437 135.81894531 -234.82296875 135.82539063 -234.0234375 135.83203125 C-232 136 -232 136 -230 137 C-230 140.96 -230 144.92 -230 149 C-229.4225 148.236875 -228.845 147.47375 -228.25 146.6875 C-226 144 -226 144 -223.8125 142.375 C-221.70001167 141.04117487 -221.70001167 141.04117487 -221 138 C-220.96045766 135.66700175 -220.95598268 133.33291811 -221 131 C-221.66 131.66 -222.32 132.32 -223 133 C-224.4606285 130.35261084 -225 129.10551666 -225 126 C-223.35 126 -221.7 126 -220 126 C-221.52174919 124.32917961 -221.52174919 124.32917961 -227 123 C-227 88.68 -227 54.36 -227 19 C-205.6221875 18.87625 -205.6221875 18.87625 -183.8125 18.75 C-177.09869995 18.69537598 -177.09869995 18.69537598 -170.24926758 18.63964844 C-164.7220459 18.62158203 -164.7220459 18.62158203 -162.12260437 18.6182251 C-160.33313501 18.61214114 -158.54368053 18.59819602 -156.75431824 18.57769775 C-140.99895186 18.40646156 -128.14716562 19.39838092 -116.18359375 30.71875 C-114.76118901 32.11805304 -113.37607971 33.55511631 -112 35 C-111.67 30.38 -111.34 25.76 -111 21 C-108.36 21.33 -105.72 21.66 -103 22 C-103 21.01 -103 20.02 -103 19 C-78.25 19 -53.5 19 -28 19 C-27.67 17.68 -27.34 16.36 -27 15 C-25.87980469 14.79503906 -24.75960937 14.59007813 -23.60546875 14.37890625 C-22.13279176 14.10688311 -20.66013664 13.83474151 -19.1875 13.5625 C-18.44951172 13.42779297 -17.71152344 13.29308594 -16.95117188 13.15429688 C-13.88684924 12.58580263 -10.96071047 11.98690349 -8 11 C-8 12.65 -8 14.3 -8 16 C-6.68 16 -5.36 16 -4 16 C-4 16.99 -4 17.98 -4 19 C-1.69 19 0.62 19 3 19 C3 18.34 3 17.68 3 17 C3.66 17 4.32 17 5 17 C5 16.34 5 15.68 5 15 C3.329375 15.061875 3.329375 15.061875 1.625 15.125 C-2 15 -2 15 -4 13 C-3.82202437 9.61846307 -3.33017977 8.3204686 -0.875 5.9375 C-0.25625 5.298125 0.3625 4.65875 1 4 C0.86358623 1.78141747 0.86358623 1.78141747 0 0 Z M31 17 C30.67 18.32 30.34 19.64 30 21 C30.99 20.67 31.98 20.34 33 20 C33 19.01 33 18.02 33 17 C32.34 17 31.68 17 31 17 Z M-213 24 C-212.67 25.32 -212.34 26.64 -212 28 C-211.01 27.34 -210.02 26.68 -209 26 C-209 25.34 -209 24.68 -209 24 C-210.32 24 -211.64 24 -213 24 Z M-30 24 C-30 24.33 -30 24.66 -30 25 C-25.71 25 -21.42 25 -17 25 C-17 24.67 -17 24.34 -17 24 C-21.29 24 -25.58 24 -30 24 Z M-12 32 C-11.01 32.495 -11.01 32.495 -10 33 C-7.64018187 32.06421005 -5.30368736 31.06652192 -3 30 C-3.33 29.34 -3.66 28.68 -4 28 C-7.28158484 28 -9.37881108 30.17656423 -12 32 Z M-210 29 C-210.33 29.66 -210.66 30.32 -211 31 C-210.34 31 -209.68 31 -209 31 C-209.33 30.34 -209.66 29.68 -210 29 Z M-45 29 C-43.02 29.99 -43.02 29.99 -41 31 C-41 30.34 -41 29.68 -41 29 C-42.32 29 -43.64 29 -45 29 Z M-75 31 C-74 35 -74 35 -74 35 Z M-68 32 C-69.63676257 33.9600281 -69.63676257 33.9600281 -71 36 C-69.68 36.33 -68.36 36.66 -67 37 C-66.67 35.35 -66.34 33.7 -66 32 C-66.66 32 -67.32 32 -68 32 Z M-54 35 C-54 35.66 -54 36.32 -54 37 C-53.278125 37.433125 -52.55625 37.86625 -51.8125 38.3125 C-48.70247194 40.17851684 -46.48359426 42.37448607 -44 45 C-43.01 44.67 -42.02 44.34 -41 44 C-42.14629825 41.08214991 -43.07474768 39.94304939 -45.625 38 C-46.40875 37.34 -47.1925 36.68 -48 36 C-48 34.68 -48 33.36 -48 32 C-50.79908133 32 -51.92722373 33.2035939 -54 35 Z M0 32 C1 36 1 36 1 36 Z M4 33 C5 37 5 37 5 37 Z M151 35 C151 35.66 151 36.32 151 37 C152.65 37 154.3 37 156 37 C153.32357511 34.81509993 153.32357511 34.81509993 151 35 Z M21 40 C22 42 22 42 22 42 Z M164 41 C165 43 165 43 165 43 Z M20 42 C18.74050951 43.03406673 18.74050951 43.03406673 18.90234375 45.28515625 C18.91394531 46.20167969 18.92554688 47.11820313 18.9375 48.0625 C18.94652344 48.98160156 18.95554687 49.90070313 18.96484375 50.84765625 C18.97644531 51.55792969 18.98804688 52.26820312 19 53 C19.33 53 19.66 53 20 53 C20.33 49.37 20.66 45.74 21 42 C20.67 42 20.34 42 20 42 Z M-4 43 C-3 46 -3 46 -3 46 Z M0 43 C4 44 4 44 4 44 Z M-190 48 C-189.85795259 49.58367747 -189.71119847 51.16693318 -189.5625 52.75 C-189.48128906 53.63171875 -189.40007812 54.5134375 -189.31640625 55.421875 C-189.03761535 57.69350452 -188.61209423 59.79851823 -188 62 C-187.34 62 -186.68 62 -186 62 C-186.33 63.98 -186.66 65.96 -187 68 C-187.99 68 -188.98 68 -190 68 C-191.0161692 72.62921525 -190.83796731 76.34462607 -190 81 C-186.37 81.66 -182.74 82.32 -179 83 C-179 82.34 -179 81.68 -179 81 C-169.1 81 -159.2 81 -149 81 C-148.01 78.69 -147.02 76.38 -146 74 C-145.29804043 72.8167638 -144.57497609 71.64517481 -143.8125 70.5 C-141.74607773 66.50966733 -141.35595927 64.42778005 -142 60 C-144.7944382 54.72161673 -148.26593382 50.91135539 -154 49 C-165.83542263 47.19459655 -178.07194455 47.90595298 -190 48 Z M175 50 C174.67 50.33 174.34 50.66 174 51 C172.44051458 51.15686249 170.87457332 51.25076639 169.30859375 51.31640625 C168.03326782 51.37356812 168.03326782 51.37356812 166.73217773 51.43188477 C165.64493408 51.47498779 164.55769043 51.51809082 163.4375 51.5625 C159.993125 51.706875 156.54875 51.85125 153 52 C153 64.54 153 77.08 153 90 C151.03177114 88.03177114 151.33751619 84.65191291 151 82 C148.52886419 85.70670372 148.65211411 88.65192181 148.5859375 92.94921875 C148.56657135 93.72183548 148.5472052 94.49445221 148.5272522 95.29048157 C148.46751521 97.7560424 148.42109514 100.22165007 148.375 102.6875 C148.33681475 104.3600463 148.29776269 106.03257305 148.2578125 107.70507812 C148.16181867 111.80322647 148.07776623 115.90146688 148 120 C144.7 119.67 141.4 119.34 138 119 C138 119.99 138 120.98 138 122 C136.01432292 121.70703125 134.02864583 121.4140625 132.04296875 121.12109375 C129.7974658 120.86095201 129.7974658 120.86095201 127 122 C126.67 121.01 126.34 120.02 126 119 C125.67 120.32 125.34 121.64 125 123 C133.88162206 124.57990392 142.18420795 123.32346258 151 122 C150.67 122.99 150.34 123.98 150 125 C151.485 125.495 151.485 125.495 153 126 C151.85660156 126.04898438 150.71320313 126.09796875 149.53515625 126.1484375 C148.04424527 126.22345189 146.55336108 126.29900028 145.0625 126.375 C144.30775391 126.4059375 143.55300781 126.436875 142.77539062 126.46875 C140.84492605 126.5726315 138.92057919 126.77895614 137 127 C136.505 127.99 136.505 127.99 136 129 C135.05125 128.79375 134.1025 128.5875 133.125 128.375 C132.09375 128.25125 131.0625 128.1275 130 128 C129.01 128.99 129.01 128.99 128 130 C129.86127406 131.86127406 132.49929136 131.46118139 134.9921875 131.71875 C137 132 137 132 140 133 C140.99 132.505 140.99 132.505 142 132 C146.84417698 131.83852743 151.22874338 132.04574868 156 133 C156 132.34 156 131.68 156 131 C158.475 130.505 158.475 130.505 161 130 C161 129.34 161 128.68 161 128 C162.32 128 163.64 128 165 128 C165 128.66 165 129.32 165 130 C166.65 130 168.3 130 170 130 C170 129.34 170 128.68 170 128 C172.97 128.33 175.94 128.66 179 129 C179.309375 129.78375 179.61875 130.5675 179.9375 131.375 C180.92875038 133.92330128 180.92875038 133.92330128 182 136 C184.8159849 136.46898963 184.8159849 136.46898963 188.0625 136.625 C189.16722656 136.69976562 190.27195312 136.77453125 191.41015625 136.8515625 C192.69212891 136.92503906 192.69212891 136.92503906 194 137 C193.67 136.01 193.34 135.02 193 134 C191.68 134 190.36 134 189 134 C188.34 132.02 187.68 130.04 187 128 C187.66 127.67 188.32 127.34 189 127 C189 126.34 189 125.68 189 125 C189.65226562 124.81566406 190.30453125 124.63132812 190.9765625 124.44140625 C197.1508168 122.39242805 200.57682936 120.21080444 203.81640625 114.51171875 C209.41621388 102.62829859 210.57984984 86.26686248 206.375 73.6875 C205.29594045 71.22647103 205.29594045 71.22647103 204 69 C203.5875 68.2678125 203.175 67.535625 202.75 66.78125 C196.43769019 57.1693237 185.37959823 53.67678558 175 50 Z M-34 55 C-34.33 56.32 -34.66 57.64 -35 59 C-34.34 59 -33.68 59 -33 59 C-33.33 57.68 -33.66 56.36 -34 55 Z M-56 81 C-55 83 -55 83 -55 83 Z M-194 99 C-194 99.99 -194 100.98 -194 102 C-193.34 102 -192.68 102 -192 102 C-192.33 101.01 -192.66 100.02 -193 99 C-193.33 99 -193.66 99 -194 99 Z M-219 114 C-219.33 114.66 -219.66 115.32 -220 116 C-219.34 116 -218.68 116 -218 116 C-218.33 115.34 -218.66 114.68 -219 114 Z M192 126 C191.01 127.485 191.01 127.485 190 129 C191.32 128.34 192.64 127.68 194 127 C193.34 126.67 192.68 126.34 192 126 Z M123 127 C123.33 127.99 123.66 128.98 124 130 C124 129.01 124 128.02 124 127 C123.67 127 123.34 127 123 127 Z M30 128 C30 128.99 30 129.98 30 131 C28.5 132.6875 28.5 132.6875 27 134 C28.485 134.99 28.485 134.99 30 136 C29.01 136.99 28.02 137.98 27 139 C28.81685373 141.26349674 28.81685373 141.26349674 31.4375 141.125 C34.10115426 140.27034481 34.10115426 140.27034481 34.9921875 138.14453125 C35.74746973 136.11246238 36.41523047 134.08710424 37 132 C33.535 130.02 33.535 130.02 30 128 Z M-46 129 C-45.67 129.99 -45.34 130.98 -45 132 C-45 131.01 -45 130.02 -45 129 C-45.33 129 -45.66 129 -46 129 Z M39 132 C39.66 133.32 40.32 134.64 41 136 C41.33 134.68 41.66 133.36 42 132 C41.01 132 40.02 132 39 132 Z M140 135 C141 137 141 137 141 137 Z M165 135 C166 137 166 137 166 137 Z M197 135 C196.01 135.99 195.02 136.98 194 138 C195.65 137.34 197.3 136.68 199 136 C198.34 135.67 197.68 135.34 197 135 Z M59 136 C58.67 138.31 58.34 140.62 58 143 C60.30671915 140.28450846 60.30671915 140.28450846 59.625 137.8125 C59.41875 137.214375 59.2125 136.61625 59 136 Z M160 148 C164 149 164 149 164 149 Z M-231 151 C-231.33 152.65 -231.66 154.3 -232 156 C-230.02463255 155.65213292 -230.02463255 155.65213292 -228 155 C-227.67 154.34 -227.34 153.68 -227 153 C-227.99 153 -228.98 153 -230 153 C-230.33 152.34 -230.66 151.68 -231 151 Z M-226 151 C-226.33 151.66 -226.66 152.32 -227 153 C-226.34 153 -225.68 153 -225 153 C-225.33 152.34 -225.66 151.68 -226 151 Z M118 155 C118 155.99 118 156.98 118 158 C119.65 157.67 121.3 157.34 123 157 C120.32357511 154.81509993 120.32357511 154.81509993 118 155 Z " fill="#000000" transform="translate(838,57)"/>
<path d="M0 0 C0 9.24 0 18.48 0 28 C-6.6 28 -13.2 28 -20 28 C-20.33 27.34 -20.66 26.68 -21 26 C-21.66 26 -22.32 26 -23 26 C-23.33 26.99 -23.66 27.98 -24 29 C-23.85892253 27.54119891 -23.71197585 26.08296449 -23.5625 24.625 C-23.44068359 23.40683594 -23.44068359 23.40683594 -23.31640625 22.1640625 C-23 20 -23 20 -22 18 C-22.99 18 -23.98 18 -25 18 C-25.33 19.98 -25.66 21.96 -26 24 C-27.5625 22.8125 -27.5625 22.8125 -29 21 C-29.0625 18.5625 -29.0625 18.5625 -28 16 C-25.41649868 14.02114793 -22.90470257 12.45235128 -20 11 C-19.34786708 8.97536745 -19.34786708 8.97536745 -19 7 C-20.98 7 -22.96 7 -25 7 C-21.30233305 2.15478124 -18.04519709 1.21882616 -12.109375 0.26171875 C-8.08620043 -0.07691529 -4.03740097 0 0 0 Z M-16 17 C-15 19 -15 19 -15 19 Z M-15 22 C-14.67 23.32 -14.34 24.64 -14 26 C-13.34 26 -12.68 26 -12 26 C-12.33 24.68 -12.66 23.36 -13 22 C-13.66 22 -14.32 22 -15 22 Z " fill="#000000" transform="translate(954,78)"/>
<path d="M0 0 C7.26 0 14.52 0 22 0 C18.5647952 2.29013653 17.014669 2.17842973 13 2 C13.44472656 2.68707031 13.88945313 3.37414063 14.34765625 4.08203125 C14.91355469 4.98308594 15.47945312 5.88414063 16.0625 6.8125 C16.63097656 7.70582031 17.19945312 8.59914063 17.78515625 9.51953125 C19 12 19 12 18 15 C15.9375 15.6875 15.9375 15.6875 14 16 C13.505 14.02 13.505 14.02 13 12 C9.74456771 12.34879632 8.98126893 13.02133261 6.75 15.5625 C6.1725 16.366875 5.595 17.17125 5 18 C6.32 17.67 7.64 17.34 9 17 C9 16.34 9 15.68 9 15 C9.66 15.33 10.32 15.66 11 16 C9.8125 17.9375 9.8125 17.9375 8 20 C7.195625 20.103125 6.39125 20.20625 5.5625 20.3125 C4.2940625 20.6528125 4.2940625 20.6528125 3 21 C2.03963645 22.79267863 1.08172976 24.5874345 0.1796875 26.41015625 C-1 28 -1 28 -4.75 28.9375 C-5.8225 28.958125 -6.895 28.97875 -8 29 C-7.34 29.99 -6.68 30.98 -6 32 C-6.47050781 32.35191406 -6.94101563 32.70382813 -7.42578125 33.06640625 C-11.9710474 36.67062351 -14.1318087 39.5053197 -16 45 C-16.33 44.34 -16.66 43.68 -17 43 C-17.66 43 -18.32 43 -19 43 C-18.773125 42.13375 -18.54625 41.2675 -18.3125 40.375 C-17.93294768 36.27583498 -19.16181551 34.59977795 -21 31 C-20.6875 28.125 -20.6875 28.125 -20 26 C-19.5875 26.515625 -19.175 27.03125 -18.75 27.5625 C-18.1725 28.036875 -17.595 28.51125 -17 29 C-7.95562609 27.92920732 2.23075948 16.27169292 8.0625 9.75 C10.38396902 7.01567615 10.38396902 7.01567615 10 3 C9.36191406 2.95101562 8.72382812 2.90203125 8.06640625 2.8515625 C7.24011719 2.77679688 6.41382812 2.70203125 5.5625 2.625 C4.73878906 2.55539063 3.91507813 2.48578125 3.06640625 2.4140625 C2.38449219 2.27742188 1.70257813 2.14078125 1 2 C0.67 1.34 0.34 0.68 0 0 Z M0 19 C-2.475 22.465 -2.475 22.465 -5 26 C-1.18586998 24.8321734 -1.18586998 24.8321734 1.3125 21.875 C1.539375 21.25625 1.76625 20.6375 2 20 C1.34 19.67 0.68 19.34 0 19 Z " fill="#000000" transform="translate(76,52)"/>
<path d="M0 0 C7.93607955 7.72159091 7.93607955 7.72159091 8.1875 12.75 C8.0946875 14.35875 8.0946875 14.35875 8 16 C5.36 16 2.72 16 0 16 C0 15.34 0 14.68 0 14 C-1.41543415 13.80341192 -2.83244031 13.61812454 -4.25 13.4375 C-5.03890625 13.33308594 -5.8278125 13.22867188 -6.640625 13.12109375 C-8.99530555 12.87628837 -8.99530555 12.87628837 -11.171875 13.59765625 C-11.77515625 13.73042969 -12.3784375 13.86320313 -13 14 C-13.66 13.34 -14.32 12.68 -15 12 C-13.90653119 10.65787938 -12.7998425 9.32652025 -11.6875 8 C-11.07261719 7.2575 -10.45773437 6.515 -9.82421875 5.75 C-8 4 -8 4 -5 4 C-2.32601524 2.06102121 -2.32601524 2.06102121 0 0 Z " fill="#000000" transform="translate(886,233)"/>
<path d="M0 0 C3.3125 0.125 3.3125 0.125 7 1 C9.23008901 4.06637239 10.02373429 5.95569144 9.9375 9.75 C9 12 9 12 6.9375 13.3125 C6.298125 13.539375 5.65875 13.76625 5 14 C4.01 13.34 3.02 12.68 2 12 C2 12.66 2 13.32 2 14 C-0.475 13.01 -0.475 13.01 -3 12 C-3 10.68 -3 9.36 -3 8 C-4.65 8 -6.3 8 -8 8 C-6.38405168 5.95880212 -4.7143618 3.95927063 -3 2 C-2.34 2 -1.68 2 -1 2 C-0.67 1.34 -0.34 0.68 0 0 Z " fill="#000000" transform="translate(856,63)"/>
<path d="M0 0 C0.99 0 1.98 0 3 0 C3.33 1.98 3.66 3.96 4 6 C4.33 5.01 4.66 4.02 5 3 C5.99 3 6.98 3 8 3 C7.34 6.63 6.68 10.26 6 14 C4.68 14.33 3.36 14.66 2 15 C2 15.99 2 16.98 2 18 C1.01 18 0.02 18 -1 18 C-1.33 16.35 -1.66 14.7 -2 13 C-1.34 13 -0.68 13 0 13 C0 8.71 0 4.42 0 0 Z " fill="#000000" transform="translate(132,117)"/>
<path d="M0 0 C0 3.63 0 7.26 0 11 C-2.31 11 -4.62 11 -7 11 C-7.99 8.69 -8.98 6.38 -10 4 C-3.375 0 -3.375 0 0 0 Z " fill="#000000" transform="translate(909,159)"/>
<path d="M0 0 C0.99 0.99 1.98 1.98 3 3 C1.68 4.65 0.36 6.3 -1 8 C0.32 8.33 1.64 8.66 3 9 C2.34 11.31 1.68 13.62 1 16 C0.01 15.34 -0.98 14.68 -2 14 C-2.99 14.495 -2.99 14.495 -4 15 C-5.72764135 11.5447173 -5.6291985 7.76849737 -5 4 C-2.5 1.4375 -2.5 1.4375 0 0 Z " fill="#000000" transform="translate(444,197)"/>
<path d="M0 0 C0.66 0.33 1.32 0.66 2 1 C2 2.32 2 3.64 2 5 C3.98 4.67 5.96 4.34 8 4 C5.375 8.875 5.375 8.875 2 10 C1.34 9.67 0.68 9.34 0 9 C-0.66 11.31 -1.32 13.62 -2 16 C-4 15 -4 15 -5 12 C-5.66 11.34 -6.32 10.68 -7 10 C-6.195625 9.7525 -5.39125 9.505 -4.5625 9.25 C-1.87397911 8.29363884 -1.87397911 8.29363884 -1.25 6.125 C-1.1675 5.42375 -1.085 4.7225 -1 4 C-0.66666667 2.66666667 -0.33333333 1.33333333 0 0 Z " fill="#000000" transform="translate(155,170)"/>
<path d="M0 0 C0.33 0.66 0.66 1.32 1 2 C2.32 2 3.64 2 5 2 C5 2.99 5 3.98 5 5 C-1.93 5 -8.86 5 -16 5 C-16 4.01 -16 3.02 -16 2 C-11.66666667 2 -7.33333333 2 -3 2 C-2.01 1.34 -1.02 0.68 0 0 Z " fill="#000000" transform="translate(271,212)"/>
<path d="M0 0 C0 2.97 0 5.94 0 9 C-3.3 8.01 -6.6 7.02 -10 6 C-7.65701369 1.31402739 -5.4251219 -1.80837397 0 0 Z " fill="#000000" transform="translate(879,218)"/>
<path d="M0 0 C0.66 0.33 1.32 0.66 2 1 C2.08703823 4.43734063 2.14040272 7.87439837 2.1875 11.3125 C2.21263672 12.28896484 2.23777344 13.26542969 2.26367188 14.27148438 C2.27333984 15.20927734 2.28300781 16.14707031 2.29296875 17.11328125 C2.3086792 17.97735596 2.32438965 18.84143066 2.34057617 19.73168945 C1.93240678 22.45018536 1.10407096 23.30363829 -1 25 C-1.02718316 22.14576808 -1.04692705 19.29179985 -1.0625 16.4375 C-1.07087891 15.63763672 -1.07925781 14.83777344 -1.08789062 14.01367188 C-1.10742247 9.22836896 -0.80437018 4.71854949 0 0 Z " fill="#000000" transform="translate(989,148)"/>
<path d="M0 0 C2.69082872 0.17635452 5.32851446 0.61835921 8 1 C8 2.98 8 4.96 8 7 C5.69 7.66 3.38 8.32 1 9 C-1 7 -1 7 -1.1875 3.9375 C-1 1 -1 1 0 0 Z " fill="#000000" transform="translate(487,148)"/>
<path d="M0 0 C3.56050965 0.30518654 5.00035037 1.00028808 7.8125 3.3125 C10 6 10 6 10 10 C5.62179908 9.49963418 3.0802463 8.16825333 0 5 C-0.3125 2.25 -0.3125 2.25 0 0 Z " fill="#000000" transform="translate(195,114)"/>
<path d="M0 0 C3.72433382 1.2125738 7.37802806 2.50859979 11 4 C9.125 8.75 9.125 8.75 8 11 C7.34 11 6.68 11 6 11 C5.67 9.68 5.34 8.36 5 7 C3.35 6.67 1.7 6.34 0 6 C0 4.02 0 2.04 0 0 Z " fill="#000000" transform="translate(841,44)"/>
<path d="M0 0 C-0.47986031 5.56890517 -1.29915181 10.67067568 -3 16 C-3.66 16 -4.32 16 -5 16 C-5.65256211 12.31076275 -6.14224618 8.75108446 -6 5 C-2.2745098 0 -2.2745098 0 0 0 Z " fill="#000000" transform="translate(776,157)"/>
<path d="M0 0 C-0.33 5.28 -0.66 10.56 -1 16 C-1.66 16 -2.32 16 -3 16 C-3.99 11.71 -4.98 7.42 -6 3 C-1 0 -1 0 0 0 Z " fill="#000000" transform="translate(6,171)"/>
<path d="M0 0 C0.99 0 1.98 0 3 0 C3 0.99 3 1.98 3 3 C1.68 3.33 0.36 3.66 -1 4 C-1 8.95 -1 13.9 -1 19 C-4 16 -4 16 -4.4375 12.3125 C-4.28844705 7.58664484 -2.38213452 3.99858294 0 0 Z " fill="#000000" transform="translate(131,109)"/>
<path d="M0 0 C2.4375 0.75 2.4375 0.75 5 2 C6 3.9375 6 3.9375 6 6 C4.5625 7.75 4.5625 7.75 3 9 C-0.75283733 7.54728878 -0.75283733 7.54728878 -1.875 5.0625 C-2 3 -2 3 0 0 Z " fill="#000000" transform="translate(823,116)"/>
<path d="M0 0 C1.88391785 3.26545761 2.49287967 6.28111761 3 10 C1.68 10.99 0.36 11.98 -1 13 C-3.13586678 9.79619983 -3.23132175 8.98060033 -3.125 5.3125 C-3.10695313 4.50425781 -3.08890625 3.69601563 -3.0703125 2.86328125 C-3.04710938 2.24839844 -3.02390625 1.63351563 -3 1 C-2.01 0.67 -1.02 0.34 0 0 Z " fill="#000000" transform="translate(68,106)"/>
<path d="M0 0 C0.66 0 1.32 0 2 0 C2.99 4.62 3.98 9.24 5 14 C3.35 14 1.7 14 0 14 C0 9.38 0 4.76 0 0 Z " fill="#000000" transform="translate(68,143)"/>
<path d="M0 0 C0.66 0 1.32 0 2 0 C3.19876651 5.44893869 2.91360308 8.22169095 0 13 C-0.33 13 -0.66 13 -1 13 C-1.33 11.35 -1.66 9.7 -2 8 C-2.33 8.66 -2.66 9.32 -3 10 C-3.66 9.67 -4.32 9.34 -5 9 C-4.3566152 7.686298 -3.71021785 6.37407102 -3.0625 5.0625 C-2.70285156 4.33160156 -2.34320313 3.60070312 -1.97265625 2.84765625 C-1 1 -1 1 0 0 Z " fill="#000000" transform="translate(72,85)"/>
<path d="M0 0 C1.051875 0.2475 1.051875 0.2475 2.125 0.5 C5.03703468 1.091025 5.03703468 1.091025 8.1875 1 C11 1 11 1 13 2 C13 2.66 13 3.32 13 4 C11.63875 3.9690625 11.63875 3.9690625 10.25 3.9375 C7.13474745 3.84491187 7.13474745 3.84491187 4.8125 4.6875 C4.214375 4.790625 3.61625 4.89375 3 5 C1.25 3.6875 1.25 3.6875 0 2 C0 1.34 0 0.68 0 0 Z " fill="#000000" transform="translate(148,165)"/>
<path d="M0 0 C0.7734375 0.495 0.7734375 0.495 1.5625 1 C4.78026512 2.32010877 7.5570528 2.13242105 11 2 C10.67 2.99 10.34 3.98 10 5 C5.84567717 5.94416428 3.6706444 6.22860553 0 4 C-0.66 4 -1.32 4 -2 4 C-1.34 2.68 -0.68 1.36 0 0 Z " fill="#000000" transform="translate(814,49)"/>
<path d="M0 0 C0.86625 0.495 0.86625 0.495 1.75 1 C4.19883862 2.27075898 4.19883862 2.27075898 8 2 C8.33 3.32 8.66 4.64 9 6 C7.02 6.33 5.04 6.66 3 7 C0 2.25 0 2.25 0 0 Z " fill="#000000" transform="translate(165,172)"/>
<path d="M0 0 C1.65 0.33 3.3 0.66 5 1 C4.67 1.66 4.34 2.32 4 3 C4.66 3.66 5.32 4.32 6 5 C3.6875 6.5625 3.6875 6.5625 1 8 C0.01 7.67 -0.98 7.34 -2 7 C-1.34 4.69 -0.68 2.38 0 0 Z " fill="#000000" transform="translate(419,174)"/>
<path d="M0 0 C1.98 0 3.96 0 6 0 C6 1.65 6 3.3 6 5 C3.36 5.33 0.72 5.66 -2 6 C-2 5.34 -2 4.68 -2 4 C-1.34 4 -0.68 4 0 4 C0 2.68 0 1.36 0 0 Z " fill="#000000" transform="translate(71,170)"/>
<path d="M0 0 C3 1 3 1 4.1875 3.375 C5 6 5 6 5 9 C4.01 9 3.02 9 2 9 C1.67 7.35 1.34 5.7 1 4 C-0.32 3.67 -1.64 3.34 -3 3 C-2.01 2.01 -1.02 1.02 0 0 Z " fill="#000000" transform="translate(167,160)"/>
<path d="M0 0 C2.9425963 0.30652045 5.34542308 0.67271154 8 2 C8 2.99 8 3.98 8 5 C7.401875 4.814375 6.80375 4.62875 6.1875 4.4375 C3.83591238 3.77906313 3.83591238 3.77906313 1 5 C0.01 4.01 -0.98 3.02 -2 2 C-1.34 1.34 -0.68 0.68 0 0 Z " fill="#000000" transform="translate(670,126)"/>
<path d="M0 0 C4.95 0 9.9 0 15 0 C15 0.66 15 1.32 15 2 C10.05 2 5.1 2 0 2 C0 1.34 0 0.68 0 0 Z " fill="#000000" transform="translate(336,215)"/>
<path d="M0 0 C0.66 0.33 1.32 0.66 2 1 C2.40729228 3.32156597 2.74438677 5.6568787 3 8 C1.02 8 -0.96 8 -3 8 C-1.125 1.125 -1.125 1.125 0 0 Z " fill="#000000" transform="translate(538,208)"/>
<path d="M0 0 C1.65 0.99 3.3 1.98 5 3 C4.34 4.32 3.68 5.64 3 7 C0 6 0 6 -3 4 C-3 3.34 -3 2.68 -3 2 C-2.01 1.34 -1.02 0.68 0 0 Z " fill="#000000" transform="translate(502,76)"/>
<path d="M0 0 C2 2 2 2 2.046875 3.91015625 C1.94890625 4.62042969 1.8509375 5.33070313 1.75 6.0625 C1.61851562 7.13177734 1.61851562 7.13177734 1.484375 8.22265625 C1.32453125 8.80917969 1.1646875 9.39570313 1 10 C0.01 10.495 0.01 10.495 -1 11 C-2.0257259 6.58937864 -2.03684712 4.07369424 0 0 Z " fill="#000000" transform="translate(842,240)"/>
<path d="M0 0 C2.64 0 5.28 0 8 0 C8 1.32 8 2.64 8 4 C5.36 3.67 2.72 3.34 0 3 C0 2.01 0 1.02 0 0 Z " fill="#000000" transform="translate(72,166)"/>
<path d="M0 0 C0.66 0 1.32 0 2 0 C1.67 2.97 1.34 5.94 1 9 C0.01 9.33 -0.98 9.66 -2 10 C-1.125 2.25 -1.125 2.25 0 0 Z " fill="#000000" transform="translate(414,181)"/>
<path d="M0 0 C0.99 0 1.98 0 3 0 C3 1.65 3 3.3 3 5 C0.69 5.33 -1.62 5.66 -4 6 C-3.67 4.68 -3.34 3.36 -3 2 C-2.34 2 -1.68 2 -1 2 C-0.67 1.34 -0.34 0.68 0 0 Z " fill="#000000" transform="translate(902,116)"/>
<path d="M0 0 C0.33 0.66 0.66 1.32 1 2 C-4.94 2.495 -4.94 2.495 -11 3 C-6.85780404 -1.14219596 -5.61724914 -1.31467533 0 0 Z " fill="#000000" transform="translate(51,84)"/>
<path d="M0 0 C0.99 0.33 1.98 0.66 3 1 C-0.61328125 5.6875 -0.61328125 5.6875 -2 7 C-2.99 7 -3.98 7 -5 7 C-3.70700306 4.11562221 -2.34058637 2.12780579 0 0 Z " fill="#000000" transform="translate(410,180)"/>
<path d="M0 0 C-0.55774272 3.23490776 -1.37211508 4.97855006 -4 7 C-4.99 7 -5.98 7 -7 7 C-3.86206897 0 -3.86206897 0 0 0 Z " fill="#000000" transform="translate(909,231)"/>
<path d="M0 0 C1.5625 1.125 1.5625 1.125 3 3 C2.6875 6.1875 2.6875 6.1875 2 9 C1.01 8.67 0.02 8.34 -1 8 C-1.04241723 5.66705225 -1.04092937 3.33297433 -1 1 C-0.67 0.67 -0.34 0.34 0 0 Z " fill="#000000" transform="translate(417,200)"/>
<path d="M0 0 C2.64 0 5.28 0 8 0 C8 0.99 8 1.98 8 3 C5.36 3 2.72 3 0 3 C0 2.01 0 1.02 0 0 Z " fill="#000000" transform="translate(902,39)"/>
<path d="M0 0 C0.99 0 1.98 0 3 0 C3 3.3 3 6.6 3 10 C2.34 10 1.68 10 1 10 C0.67 6.7 0.34 3.4 0 0 Z " fill="#000000" transform="translate(162,190)"/>
<path d="M0 0 C5.75 -0.125 5.75 -0.125 8 1 C8 1.66 8 2.32 8 3 C5.36 3 2.72 3 0 3 C0 2.01 0 1.02 0 0 Z " fill="#000000" transform="translate(1080,214)"/>
<path d="M0 0 C0.99 0.33 1.98 0.66 3 1 C2.01 2.98 1.02 4.96 0 7 C-0.99 6.67 -1.98 6.34 -3 6 C-1.125 1.125 -1.125 1.125 0 0 Z " fill="#000000" transform="translate(643,187)"/>
<path d="M0 0 C0.33 0 0.66 0 1 0 C1 2.31 1 4.62 1 7 C1.66 7 2.32 7 3 7 C3 7.66 3 8.32 3 9 C1.68 9 0.36 9 -1 9 C-1.09765625 2.84765625 -1.09765625 2.84765625 -1 1 C-0.67 0.67 -0.34 0.34 0 0 Z " fill="#000000" transform="translate(62,167)"/>
<path d="M0 0 C0.99 0 1.98 0 3 0 C2.38722388 2.96175123 1.74627478 4.38058783 0 7 C-0.66 7 -1.32 7 -2 7 C-1.125 2.25 -1.125 2.25 0 0 Z " fill="#000000" transform="translate(810,47)"/>
<path d="M0 0 C2.31 0.33 4.62 0.66 7 1 C7 1.99 7 2.98 7 4 C4.69 3.67 2.38 3.34 0 3 C0 2.01 0 1.02 0 0 Z " fill="#000000" transform="translate(869,251)"/>
<path d="M0 0 C1.9375 0.75 1.9375 0.75 4 2 C4.75 4.125 4.75 4.125 5 6 C4.01 6 3.02 6 2 6 C0 3 0 3 0 0 Z " fill="#000000" transform="translate(120,95)"/>
<path d="M0 0 C1.48206495 0.254496 2.96068615 0.52911762 4.4375 0.8125 C5.67306641 1.03873047 5.67306641 1.03873047 6.93359375 1.26953125 C7.95646484 1.63111328 7.95646484 1.63111328 9 2 C9.33 2.99 9.66 3.98 10 5 C6.05140217 4.4359146 3.29120954 3.2568294 0 1 C0 0.67 0 0.34 0 0 Z " fill="#000000" transform="translate(1068,212)"/>
<path d="M0 0 C0 1.98 0 3.96 0 6 C-1.32 5.34 -2.64 4.68 -4 4 C-4 3.01 -4 2.02 -4 1 C-2 0 -2 0 0 0 Z " fill="#000000" transform="translate(687,108)"/>
<path d="M0 0 C0.99 0 1.98 0 3 0 C3 1.98 3 3.96 3 6 C2.01 6 1.02 6 0 6 C0 4.02 0 2.04 0 0 Z " fill="#000000" transform="translate(170,193)"/>
<path d="M0 0 C1.98 0 3.96 0 6 0 C6 0.99 6 1.98 6 3 C4.02 3 2.04 3 0 3 C0 2.01 0 1.02 0 0 Z " fill="#000000" transform="translate(53,156)"/>
<path d="M0 0 C1.65 0 3.3 0 5 0 C5.33 1.32 5.66 2.64 6 4 C4.02 3.34 2.04 2.68 0 2 C0 1.34 0 0.68 0 0 Z " fill="#000000" transform="translate(1047,214)"/>
<path d="M0 0 C2.97 0.495 2.97 0.495 6 1 C6 1.99 6 2.98 6 4 C3.03 3.505 3.03 3.505 0 3 C0 2.01 0 1.02 0 0 Z " fill="#000000" transform="translate(192,107)"/>
<path d="M0 0 C0.99 0 1.98 0 3 0 C2.67 1.98 2.34 3.96 2 6 C1.01 6 0.02 6 -1 6 C-0.67 4.02 -0.34 2.04 0 0 Z " fill="#000000" transform="translate(511,80)"/>
<path d="M0 0 C2.97 0.495 2.97 0.495 6 1 C6 1.99 6 2.98 6 4 C4.02 3.34 2.04 2.68 0 2 C0 1.34 0 0.68 0 0 Z " fill="#000000" transform="translate(47,62)"/>
<path d="M0 0 C1.65 0 3.3 0 5 0 C3.6875 2 3.6875 2 2 4 C1.01 4 0.02 4 -1 4 C-0.67 2.68 -0.34 1.36 0 0 Z " fill="#000000" transform="translate(839,52)"/>
<path d="M0 0 C3 3.75 3 3.75 3 6 C2.01 6 1.02 6 0 6 C-0.66 4.35 -1.32 2.7 -2 1 C-1.34 0.67 -0.68 0.34 0 0 Z " fill="#000000" transform="translate(161,182)"/>
<path d="M0 0 C1.9375 0.3125 1.9375 0.3125 4 1 C4.33 1.99 4.66 2.98 5 4 C3.68 4 2.36 4 1 4 C0.67 2.68 0.34 1.36 0 0 Z " fill="#000000" transform="translate(663,132)"/>
<path d="M0 0 C-0.66 1.32 -1.32 2.64 -2 4 C-3.32 3.67 -4.64 3.34 -6 3 C-3.375 0 -3.375 0 0 0 Z " fill="#000000" transform="translate(131,90)"/>
<path d="M0 0 C0.99 0.33 1.98 0.66 3 1 C3.6875 3.0625 3.6875 3.0625 4 5 C3.01 5.33 2.02 5.66 1 6 C0.67 4.02 0.34 2.04 0 0 Z " fill="#000000" transform="translate(499,89)"/>
<path d="M0 0 C1.98 0.495 1.98 0.495 4 1 C3.34 2.32 2.68 3.64 2 5 C1.01 5 0.02 5 -1 5 C-0.67 3.35 -0.34 1.7 0 0 Z " fill="#000000" transform="translate(53,88)"/>
<path d="M0 0 C0.99 0 1.98 0 3 0 C2.1875 1.9375 2.1875 1.9375 1 4 C0.01 4.33 -0.98 4.66 -2 5 C-1.125 1.125 -1.125 1.125 0 0 Z " fill="#000000" transform="translate(805,56)"/>
<path d="M0 0 C0.33 0 0.66 0 1 0 C1 1.65 1 3.3 1 5 C-0.65 5 -2.3 5 -4 5 C-2.69254251 3.31295807 -1.35827971 1.64639965 0 0 Z " fill="#000000" transform="translate(190,211)"/>
<path d="M0 0 C2.97 0.495 2.97 0.495 6 1 C6 1.99 6 2.98 6 4 C3.03 3.505 3.03 3.505 0 3 C0 2.01 0 1.02 0 0 Z " fill="#000000" transform="translate(597,187)"/>
<path d="M0 0 C0.99 0 1.98 0 3 0 C3 1.65 3 3.3 3 5 C2.01 5 1.02 5 0 5 C0 3.35 0 1.7 0 0 Z " fill="#000000" transform="translate(591,137)"/>
<path d="M0 0 C0.99 0.33 1.98 0.66 3 1 C1.6875 2.5 1.6875 2.5 0 4 C-0.99 4 -1.98 4 -3 4 C-2.67 3.01 -2.34 2.02 -2 1 C-1.34 0.67 -0.68 0.34 0 0 Z " fill="#000000" transform="translate(402,134)"/>
<path d="M0 0 C0.66 0 1.32 0 2 0 C1.67 1.65 1.34 3.3 1 5 C0.01 5 -0.98 5 -2 5 C-1.34 3.35 -0.68 1.7 0 0 Z " fill="#000000" transform="translate(463,114)"/>
<path d="M0 0 C1.65 0 3.3 0 5 0 C5 0.99 5 1.98 5 3 C3.35 3 1.7 3 0 3 C0 2.01 0 1.02 0 0 Z " fill="#000000" transform="translate(25,77)"/>
<path d="M0 0 C2.475 0.495 2.475 0.495 5 1 C5 1.99 5 2.98 5 4 C3.35 3.67 1.7 3.34 0 3 C0 2.01 0 1.02 0 0 Z " fill="#000000" transform="translate(69,51)"/>
<path d="M0 0 C0.99 0 1.98 0 3 0 C3.33 1.65 3.66 3.3 4 5 C3.01 5 2.02 5 1 5 C0.67 3.35 0.34 1.7 0 0 Z " fill="#000000" transform="translate(888,47)"/>
<path d="M0 0 C1.65 0 3.3 0 5 0 C5 0.99 5 1.98 5 3 C3.35 3 1.7 3 0 3 C0 2.01 0 1.02 0 0 Z " fill="#000000" transform="translate(911,39)"/>
<path d="M0 0 C0.99 0 1.98 0 3 0 C3.33 1.65 3.66 3.3 4 5 C3.01 5 2.02 5 1 5 C0.67 3.35 0.34 1.7 0 0 Z " fill="#000000" transform="translate(452,138)"/>
<path d="M0 0 C1.98 0 3.96 0 6 0 C5.67 0.99 5.34 1.98 5 3 C3.35 2.67 1.7 2.34 0 2 C0 1.34 0 0.68 0 0 Z " fill="#000000" transform="translate(899,108)"/>
<path d="M0 0 C0.66 0.33 1.32 0.66 2 1 C2 1.99 2 2.98 2 4 C0.35 4.33 -1.3 4.66 -3 5 C-1.125 1.125 -1.125 1.125 0 0 Z " fill="#000000" transform="translate(18,59)"/>
<path d="M0 0 C0.66 0.33 1.32 0.66 2 1 C2 1.99 2 2.98 2 4 C0.35 4 -1.3 4 -3 4 C-2.01 2.68 -1.02 1.36 0 0 Z " fill="#000000" transform="translate(570,212)"/>
<path d="M0 0 C1.68496298 0.96885372 3.35178756 1.96986723 5 3 C5 3.33 5 3.66 5 4 C3.35 4 1.7 4 0 4 C0 2.68 0 1.36 0 0 Z " fill="#000000" transform="translate(672,207)"/>
<path d="M0 0 C1.65 1.32 3.3 2.64 5 4 C3.35 4.33 1.7 4.66 0 5 C0 3.35 0 1.7 0 0 Z " fill="#000000" transform="translate(925,85)"/>
<path d="M0 0 C0.99 0 1.98 0 3 0 C3 1.32 3 2.64 3 4 C2.01 4 1.02 4 0 4 C0 2.68 0 1.36 0 0 Z " fill="#000000" transform="translate(947,248)"/>
<path d="M0 0 C1.98 0 3.96 0 6 0 C6 0.66 6 1.32 6 2 C4.02 2 2.04 2 0 2 C0 1.34 0 0.68 0 0 Z " fill="#000000" transform="translate(329,215)"/>
<path d="M0 0 C0.66 0.33 1.32 0.66 2 1 C2 1.99 2 2.98 2 4 C0.35 3.67 -1.3 3.34 -3 3 C-2.01 2.01 -1.02 1.02 0 0 Z " fill="#000000" transform="translate(252,213)"/>
<path d="M0 0 C1.32 0 2.64 0 4 0 C4 0.99 4 1.98 4 3 C2.68 3 1.36 3 0 3 C0 2.01 0 1.02 0 0 Z " fill="#000000" transform="translate(1062,210)"/>
<path d="M0 0 C0.99 0 1.98 0 3 0 C3 1.32 3 2.64 3 4 C2.01 4 1.02 4 0 4 C0 2.68 0 1.36 0 0 Z " fill="#000000" transform="translate(689,206)"/>
<path d="M0 0 C0 0.99 0 1.98 0 3 C-1.32 3.33 -2.64 3.66 -4 4 C-4 3.01 -4 2.02 -4 1 C-2 0 -2 0 0 0 Z " fill="#000000" transform="translate(647,196)"/>
<path d="M0 0 C0.99 0.33 1.98 0.66 3 1 C2.34 2.32 1.68 3.64 1 5 C0.34 4.67 -0.32 4.34 -1 4 C-0.67 2.68 -0.34 1.36 0 0 Z " fill="#000000" transform="translate(646,174)"/>
<path d="M0 0 C0.66 0.33 1.32 0.66 2 1 C2 2.32 2 3.64 2 5 C1.01 4.67 0.02 4.34 -1 4 C-0.67 2.68 -0.34 1.36 0 0 Z " fill="#000000" transform="translate(188,153)"/>
<path d="M0 0 C0.99 0 1.98 0 3 0 C3 1.32 3 2.64 3 4 C2.01 4 1.02 4 0 4 C0 2.68 0 1.36 0 0 Z " fill="#000000" transform="translate(835,118)"/>
<path d="M0 0 C0.99 0 1.98 0 3 0 C3.33 1.32 3.66 2.64 4 4 C3.01 4 2.02 4 1 4 C0.67 2.68 0.34 1.36 0 0 Z " fill="#000000" transform="translate(59,114)"/>
<path d="M0 0 C1.98 0.99 1.98 0.99 4 2 C4 2.66 4 3.32 4 4 C2.68 3.67 1.36 3.34 0 3 C0 2.01 0 1.02 0 0 Z " fill="#000000" transform="translate(31,80)"/>
<path d="M0 0 C0.99 0 1.98 0 3 0 C2.34 1.32 1.68 2.64 1 4 C0.34 4 -0.32 4 -1 4 C-0.67 2.68 -0.34 1.36 0 0 Z " fill="#000000" transform="translate(819,63)"/>
<path d="M0 0 C0.99 0 1.98 0 3 0 C3 1.32 3 2.64 3 4 C2.01 4 1.02 4 0 4 C0 2.68 0 1.36 0 0 Z " fill="#000000" transform="translate(110,60)"/>
<path d="M0 0 C1.32 0 2.64 0 4 0 C4 0.99 4 1.98 4 3 C2.68 3 1.36 3 0 3 C0 2.01 0 1.02 0 0 Z " fill="#000000" transform="translate(843,39)"/>
<path d="M0 0 C0.99 0 1.98 0 3 0 C2.67 1.32 2.34 2.64 2 4 C1.01 3.67 0.02 3.34 -1 3 C-0.67 2.01 -0.34 1.02 0 0 Z " fill="#000000" transform="translate(56,166)"/>
<path d="M0 0 C1.32 0.33 2.64 0.66 4 1 C4 1.66 4 2.32 4 3 C2.68 3 1.36 3 0 3 C0 2.01 0 1.02 0 0 Z " fill="#000000" transform="translate(925,79)"/>
<path d="M0 0 C1.485 0.99 1.485 0.99 3 2 C3 2.66 3 3.32 3 4 C2.01 4.33 1.02 4.66 0 5 C0 3.35 0 1.7 0 0 Z " fill="#000000" transform="translate(543,219)"/>
<path d="M0 0 C0.66 0 1.32 0 2 0 C2 1.65 2 3.3 2 5 C1.34 5 0.68 5 0 5 C0 3.35 0 1.7 0 0 Z " fill="#000000" transform="translate(421,200)"/>
<path d="M0 0 C0.66 0 1.32 0 2 0 C2 1.98 2 3.96 2 6 C1.34 5.34 0.68 4.68 0 4 C0 2.68 0 1.36 0 0 Z " fill="#000000" transform="translate(1020,184)"/>
<path d="M0 0 C0.66 0 1.32 0 2 0 C2 1.65 2 3.3 2 5 C1.34 5 0.68 5 0 5 C0 3.35 0 1.7 0 0 Z " fill="#000000" transform="translate(421,168)"/>
<path d="M0 0 C0.66 0 1.32 0 2 0 C2 1.65 2 3.3 2 5 C1.34 5 0.68 5 0 5 C0 3.35 0 1.7 0 0 Z " fill="#000000" transform="translate(69,100)"/>
<path d="M0 0 C0.66 0 1.32 0 2 0 C1.67 1.32 1.34 2.64 1 4 C0.34 4 -0.32 4 -1 4 C-0.67 2.68 -0.34 1.36 0 0 Z " fill="#000000" transform="translate(519,78)"/>
<path d="M0 0 C0.99 0 1.98 0 3 0 C2.67 0.99 2.34 1.98 2 3 C1.01 3 0.02 3 -1 3 C-0.67 2.01 -0.34 1.02 0 0 Z " fill="#000000" transform="translate(849,59)"/>
<path d="M0 0 C0.99 0 1.98 0 3 0 C3 0.99 3 1.98 3 3 C2.01 3 1.02 3 0 3 C0 2.01 0 1.02 0 0 Z " fill="#000000" transform="translate(856,225)"/>
<path d="M0 0 C0.99 0 1.98 0 3 0 C3 0.99 3 1.98 3 3 C2.01 3 1.02 3 0 3 C0 2.01 0 1.02 0 0 Z " fill="#000000" transform="translate(435,206)"/>
<path d="M0 0 C0.99 0 1.98 0 3 0 C3 0.99 3 1.98 3 3 C2.01 3 1.02 3 0 3 C0 2.01 0 1.02 0 0 Z " fill="#000000" transform="translate(408,200)"/>
<path d="M0 0 C1.98 0.99 1.98 0.99 4 2 C3.34 2.66 2.68 3.32 2 4 C1.34 2.68 0.68 1.36 0 0 Z " fill="#000000" transform="translate(290,176)"/>
<path d="M0 0 C0.99 1.32 1.98 2.64 3 4 C1.68 4 0.36 4 -1 4 C-0.67 2.68 -0.34 1.36 0 0 Z " fill="#000000" transform="translate(161,169)"/>
<path d="M0 0 C-0.66 1.32 -1.32 2.64 -2 4 C-2.66 3.01 -3.32 2.02 -4 1 C-2 0 -2 0 0 0 Z " fill="#000000" transform="translate(542,153)"/>
<path d="M0 0 C0.99 0 1.98 0 3 0 C3 0.99 3 1.98 3 3 C2.01 3 1.02 3 0 3 C0 2.01 0 1.02 0 0 Z " fill="#000000" transform="translate(499,70)"/>
<path d="M0 0 C0.66 0 1.32 0 2 0 C1.67 1.32 1.34 2.64 1 4 C0.34 3.67 -0.32 3.34 -1 3 C-0.67 2.01 -0.34 1.02 0 0 Z " fill="#000000" transform="translate(111,52)"/>
<path d="M0 0 C0.99 0 1.98 0 3 0 C3 0.99 3 1.98 3 3 C2.01 3 1.02 3 0 3 C0 2.01 0 1.02 0 0 Z " fill="#000000" transform="translate(41,51)"/>
<path d="M0 0 C0.99 0 1.98 0 3 0 C3 0.99 3 1.98 3 3 C2.01 3 1.02 3 0 3 C0 2.01 0 1.02 0 0 Z " fill="#000000" transform="translate(922,39)"/>
<path d="M0 0 C0.66 0 1.32 0 2 0 C2 1.32 2 2.64 2 4 C1.34 4 0.68 4 0 4 C0 2.68 0 1.36 0 0 Z " fill="#000000" transform="translate(577,219)"/>
<path d="M0 0 C0 0.99 0 1.98 0 3 C-1.32 2.34 -2.64 1.68 -4 1 C-2 0 -2 0 0 0 Z " fill="#000000" transform="translate(830,51)"/>
<path d="M0 0 C0.99 0 1.98 0 3 0 C3 0.66 3 1.32 3 2 C2.01 2 1.02 2 0 2 C0 1.34 0 0.68 0 0 Z " fill="#000000" transform="translate(353,215)"/>
<path d="M0 0 C0.66 0 1.32 0 2 0 C2 0.99 2 1.98 2 3 C1.34 3 0.68 3 0 3 C0 2.01 0 1.02 0 0 Z " fill="#000000" transform="translate(684,205)"/>
<path d="M0 0 C0.66 0 1.32 0 2 0 C2 0.99 2 1.98 2 3 C1.34 3 0.68 3 0 3 C0 2.01 0 1.02 0 0 Z " fill="#000000" transform="translate(770,175)"/>
<path d="M0 0 C0.66 0 1.32 0 2 0 C2 0.99 2 1.98 2 3 C1.34 3 0.68 3 0 3 C0 2.01 0 1.02 0 0 Z " fill="#000000" transform="translate(67,170)"/>
</svg>
